<?xml version="1.0" encoding="UTF-8"?>
<svg xmlns="http://www.w3.org/2000/svg" width="960" height="538" viewBox="0 0 960 538">
  <!-- Created using SVG Map Generator: dojo.amcharts.com/svg-map-generator -->
  <style>
    .land { fill: #ffffff; stroke: #000000; stroke-width: 0.35; }
  </style>
  <g id="polygons">
    <path d="M385.11,-7.55L386.18,-7.21L387.29,-4.97L387.21,-3.31L386.16,-2.32L389.25,0.77L389.95,0.46L393.38,-0.02L394.95,0.99L395.01,2.48L395.64,3.18L394.79,4.3L396.03,4.89L397.51,6.19L398.13,7.96L399.38,9.05L401.11,11.29L402.16,11.54L402.15,13.93L402.92,15.27L402.93,17.34L404.05,18.69L402.27,20.74L401.29,20.14L399.9,21.19L400.02,22.94L402.33,25.24L403.32,26.94L402.51,28.01L401.11,28.17L401.44,29.88L398.6,30.24L397.47,28.42L396.66,28.33L394.66,25.38L392.03,24.65L393.11,22.43L391.5,20.65L390.16,17.81L389.24,17.78L388.28,16.85L384.88,16.33L383.7,18.58L382.72,18.13L381.87,16.95L382.5,16.23L381.92,15.07L380.6,14.32L379.92,11.96L379.2,10.75L376.84,10.87L374.96,12.76L374.39,14.18L374.8,15.72L373.14,15.28L371.85,14.44L370.11,14.03L369.02,14.51L367.29,13.08L366.71,14.37L364.87,15.27L363.04,15.12L362.45,16.2L360.12,14.41L360.27,13.31L358.36,14.18L355.5,14.56L353.7,13.66L353.84,13.1L352.38,11.87L352.14,10.21L352.8,8.62L351.65,7.36L350.2,7.01L350.45,8.61L349.61,10.31L347.17,9L347.17,7.51L345.44,6.42L343.95,7.17L342.76,6.43L340.02,2.24L339.08,1.82L337.41,0.16L337.7,-1.91L336.44,-2.55L334.76,-5.46L334.72,-6.04L335.88,-6.39L337.83,-9.1L337.23,-10.75L339.32,-12.02L340.2,-13.31L340,-14.16L341.23,-15.27L342.45,-15.18L344.67,-13.01L346.46,-13.32L348.5,-11.54L349.8,-12.03L351.86,-10.55L352.49,-10.59L354.03,-8.87L355.57,-8.9L357.14,-8.24L359.09,-4.62L360.38,-2.98L362.37,-2.72L362.75,-1.99L364.15,-1.25L365.91,-1.39L366.22,-3.89L367.84,-4.38L368.7,-5.3L370.48,-5.95L369.49,-7.46L370.98,-9.83L372.38,-9.73L372.84,-10.48L374.57,-11.04L374.8,-13.4L376.15,-15.32L376.26,-16.84L378.44,-16.07L379.28,-15.33L381.18,-14.47L381.48,-13.6L380.71,-12.55L382.17,-11.03L381.97,-10.31L383.34,-8.56Z" class="land" id="VN-01" title="Lai Châu"/>
    <path d="M418.94,-12.32L418.7,-11.47L419.76,-10.82L421.28,-11.08L422.3,-9.04L423.98,-8.29L424.09,-6.65L422.46,-6.66L421.98,-4.81L424.45,-2.95L423.4,-1.87L424.24,-0.4L425.17,-0.23L427.58,1.34L427.58,2.25L428.9,4.64L427.39,5.87L427.76,7.03L429.2,6.88L430.32,7.88L430.51,9.85L429.05,9.91L428.85,12.22L428.16,13.7L423.84,10.29L422.41,8.98L420.72,9.96L421.46,11.14L421.43,12.33L420.52,13.49L420.52,14.31L421.99,16.13L422.63,18.39L422.5,20.01L420.83,20.98L419.44,22.52L418.26,20.71L416.52,19.81L415.35,20.16L413.97,19.47L414.3,21.38L412.81,22L410.51,21.64L408.57,20.8L407.87,21.3L405.08,20.72L404.25,19.91L404.05,18.69L402.93,17.34L402.92,15.27L402.15,13.93L402.16,11.54L401.11,11.29L399.38,9.05L398.13,7.96L397.51,6.19L396.03,4.89L394.79,4.3L395.64,3.18L395.01,2.48L394.95,0.99L393.38,-0.02L389.95,0.46L389.25,0.77L386.16,-2.32L387.21,-3.31L387.29,-4.97L386.18,-7.21L385.11,-7.55L386,-9.24L387.13,-10.39L386.57,-12.15L387.9,-13.71L388.73,-15.48L389.67,-15.97L390.83,-14.75L394.96,-11.49L396.84,-9.4L397.31,-8.45L400.12,-6.4L403.1,-3.87L405.16,-4.46L405.26,-6.9L405.97,-9.54L405.55,-10.24L406.29,-12.89L407.39,-14.29L408.36,-14.9L409.44,-16.59L410.24,-16.35L414.76,-17.98L415.96,-17.7L415.31,-15.15L416.3,-13.62L418.06,-13.2Z" class="land" id="VN-02" title="Lào Cai"/>
    <path d="M470.07,-29.43L468.56,-28.99L468.19,-27.61L466.87,-24.85L465.27,-24.4L463.94,-24.5L462.14,-24.02L461.47,-21.78L460.53,-21.62L459.26,-20.23L459.36,-18.26L459.8,-17.72L462.64,-16.55L463.2,-15.84L466.25,-14.19L466.84,-12.23L466.79,-10.93L467.3,-9.19L465.3,-8.08L463.59,-8.27L462.97,-9.04L460.26,-9.45L459.48,-8.32L458.58,-8.33L457.85,-9.76L455.62,-10.33L455.04,-11.02L452.65,-11.78L452.11,-10.78L453.12,-8.69L451.75,-7.98L451.21,-6.73L451.77,-5.1L450.94,-3.22L451.36,-1.76L450.08,-1.05L450.67,-0.03L449.49,1.32L449.93,2.51L448.34,4.29L448.48,5.21L447.11,6.11L445.75,3.76L444.39,3.89L443.05,3.35L442.51,5.8L443.02,7.27L442,9.66L441.24,8.9L440.13,9.57L438.08,10.2L436.54,10.3L436.21,9.55L434.92,8.96L434.84,6.54L433.31,6.37L430,5.15L429.2,6.88L427.76,7.03L427.39,5.87L428.9,4.64L427.58,2.25L427.58,1.34L425.17,-0.23L424.24,-0.4L423.4,-1.87L424.45,-2.95L421.98,-4.81L422.46,-6.66L424.09,-6.65L423.98,-8.29L422.3,-9.04L421.28,-11.08L419.76,-10.82L418.7,-11.47L418.94,-12.32L419.58,-11.6L421.33,-12.01L422.41,-13.54L424.36,-14.34L426.3,-15.96L427.52,-17.76L428.81,-18.33L432.78,-16.86L434.91,-16.97L434.98,-18.23L436.28,-18.57L437.17,-20.5L439,-21.29L439.8,-21.22L440.7,-22.28L439.34,-23.75L439.31,-25.55L438.37,-27.95L438.18,-29.55L439.32,-30.12L441.16,-29.8L441.5,-31.39L442.99,-32.22L444.37,-31.7L444.78,-33.05L447.56,-33.73L450.04,-35.78L451.22,-34.8L453.01,-35.65L453.7,-36.54L455.9,-35.8L457.26,-37.61L457.29,-38.82L458.49,-39.43L460,-40.9L461.08,-39.89L461.98,-37.81L463.61,-36.6L464.8,-37.11L465.38,-36.05L467.06,-34.23L467.44,-32.86L469.19,-32.57L471.22,-30.57Z" class="land" id="VN-03" title="Hà Giang"/>
    <path d="M511.72,-0.33L510.63,-0.22L509.96,0.66L508.87,0.79L508.62,1.88L507.11,2.39L504.8,1.68L503.37,2.38L502.64,0.93L500.27,-0.54L499.82,-1.42L498.25,-1.98L497.3,-1.58L496.02,1.05L494.93,0.22L494.15,0.86L492.91,0.67L492.25,-1.21L493.31,-2.38L493.33,-3.94L492.55,-4.21L492.31,-5.51L491.1,-6.46L488.6,-5.84L486.45,-4.51L485.48,-4.69L484.57,-3.35L482.82,-4.42L481.59,-4.19L480.08,-4.56L478.01,-8.05L476.97,-9.03L478.86,-11.24L477.44,-13.6L475.41,-12.64L474.23,-12.89L473.58,-11.83L472.41,-11.89L469.3,-10.15L468.67,-9.16L467.3,-9.19L466.79,-10.93L466.84,-12.23L466.25,-14.19L463.2,-15.84L462.64,-16.55L459.8,-17.72L459.36,-18.26L459.26,-20.23L460.53,-21.62L461.47,-21.78L462.14,-24.02L463.94,-24.5L465.27,-24.4L466.87,-24.85L468.19,-27.61L468.56,-28.99L470.07,-29.43L470.61,-27.36L472.32,-27.35L473.34,-27.91L474.76,-27.15L477.13,-27.11L477.33,-25.87L479.08,-25.42L480,-24.27L480.99,-24.33L481.95,-23.56L483.2,-21.53L484.91,-22.64L485.74,-21.93L486.77,-22.39L488.36,-22.25L488.39,-24.15L491.8,-24.5L492.65,-23.9L494.33,-24.33L495.79,-23.77L496.54,-24.05L499.55,-20.76L499.89,-19.72L501.28,-18.8L502.69,-18.49L503.75,-19.67L505.14,-19.49L506.98,-20.45L509.33,-20.9L509.69,-22.24L510.95,-22.07L511.9,-21.09L512.81,-21.63L515.68,-18.99L516.27,-20L518.01,-19.76L517.92,-18.83L521.06,-16.6L521.96,-16.96L523.3,-16.22L522.45,-14.93L521.51,-14.82L520.24,-13.66L520.91,-12.2L519.29,-10.7L518.54,-8.57L518.93,-7.37L516.75,-6.57L515.39,-6.82L514.59,-7.98L513.7,-7.82L513.37,-5.76L512.61,-4.41L512.7,-2.6L511.94,-2.29Z" class="land" id="VN-04" title="Cao Bằng"/>
    <path d="M383.7,18.58L384.88,16.33L388.28,16.85L389.24,17.78L390.16,17.81L391.5,20.65L393.11,22.43L392.03,24.65L394.66,25.38L396.66,28.33L397.47,28.42L398.6,30.24L401.44,29.88L402.04,31.12L404,30.76L405.81,31L408.4,32.24L411.26,31.7L412.73,32.04L413.83,30.98L415.28,31.07L417.05,31.81L418.82,31.81L417.43,33.68L416.66,34.04L417.1,35.22L416.22,36.06L416.98,37.75L416.47,39.37L417.15,40.75L420.62,42.27L422.11,43.19L422.19,43.93L424.56,44.36L425.71,43.36L426.76,41.83L428.85,42.02L429.26,41.43L431.61,43.06L432.96,43.42L433.5,42.38L434.78,42.4L436.77,44.64L437.2,45.48L438.78,45.11L439.92,46.21L439.84,48.17L440.81,50.49L440.33,52.82L442.75,54.46L441.29,54.98L440.3,55.9L440.92,57.84L442.07,59.62L443.18,60.56L443.92,61.92L445.55,63.03L446.71,65.58L446.67,67.91L446.19,69.52L445.32,70.52L443.26,69.81L441.52,68.81L439.72,69.56L440.15,71.5L439.64,73.3L440.03,73.63L438.07,75.05L438.16,76.57L435.71,76.95L434.9,75.71L433.85,75.74L432.42,74.85L431.41,73.62L431.32,72.84L429.89,72.88L429.11,71.76L427.72,70.84L426.57,71.69L425.11,70.46L424.87,68.87L422.53,67.88L421.13,66.56L420.3,66.57L418.42,65.12L418.6,64.08L416.87,62.33L414.69,62.82L414.79,61.9L412.64,60.94L410.15,61.27L409.13,60.08L406.87,61.21L406.76,62.67L405.99,63.2L403.82,62.95L402.47,63.56L400.47,63.16L398.49,65L397.72,64.55L396.36,65.43L396.73,66.25L395.48,67.39L395.92,69.69L395.11,70.23L393.54,70.3L393.57,73.01L391.09,73.03L389.52,70.88L388.01,69.86L384.16,69.42L383.06,67.69L381.76,66.58L381.29,67.73L378.95,68.05L375.43,66.57L372.78,66.05L372.69,64.39L372.13,63.46L373.25,63.53L375.03,62.96L374.5,61.84L375.51,60.54L374.58,59.12L375.18,58.25L374.51,56.51L375.23,55.06L376.96,55.34L378.51,56.47L380.79,56.23L379.77,54.69L379.49,52.95L381.07,52.07L381.35,47.15L380.88,46.04L378.29,45.18L379.17,43.89L378.04,43.56L376.82,41.79L379.38,40.88L381.41,41.1L382,39.84L381.68,38.74L382.16,37.46L384.58,36.85L385.09,34.62L386.31,32.94L385.57,32.08L387.04,30.54L387.91,30.64L386.86,28.17L385.58,26.61L385.8,25.78L384.78,23.14L383.51,22.56L382.99,21.1Z" class="land" id="VN-05" title="Sơn La"/>
    <path d="M429.2,6.88L430,5.15L433.31,6.37L434.84,6.54L434.92,8.96L436.21,9.55L436.54,10.3L438.08,10.2L440.13,9.57L440.79,13.24L441.51,14.28L444.01,15.12L444.21,15.81L446.35,15.51L446.02,17.19L446.44,17.81L445.88,19.96L447.25,19.99L447.06,21.57L448,21.85L450.14,25.39L449.36,27.68L450.06,29.08L450.62,30.28L449.48,30.59L447.73,29.79L447.26,30.35L443.1,32.33L442,33.84L442.22,35.5L441.14,35.86L441.64,38.2L442.77,40.46L442.6,41.78L441.62,43.56L440.76,43.86L440.16,44.94L438.78,45.11L437.2,45.48L436.77,44.64L434.78,42.4L433.5,42.38L432.96,43.42L431.61,43.06L429.26,41.43L428.85,42.02L426.76,41.83L425.71,43.36L424.56,44.36L422.19,43.93L422.11,43.19L420.62,42.27L417.15,40.75L416.47,39.37L416.98,37.75L416.22,36.06L417.1,35.22L416.66,34.04L417.43,33.68L418.82,31.81L417.05,31.81L415.28,31.07L413.83,30.98L412.73,32.04L411.26,31.7L408.4,32.24L405.81,31L404,30.76L402.04,31.12L401.44,29.88L401.11,28.17L402.51,28.01L403.32,26.94L402.33,25.24L400.02,22.94L399.9,21.19L401.29,20.14L402.27,20.74L404.05,18.69L404.25,19.91L405.08,20.72L407.87,21.3L408.57,20.8L410.51,21.64L412.81,22L414.3,21.38L413.97,19.47L415.35,20.16L416.52,19.81L418.26,20.71L419.44,22.52L420.83,20.98L422.5,20.01L422.63,18.39L421.99,16.13L420.52,14.31L420.52,13.49L421.43,12.33L421.46,11.14L420.72,9.96L422.41,8.98L423.84,10.29L428.16,13.7L428.85,12.22L429.05,9.91L430.51,9.85L430.32,7.88Z" class="land" id="VN-06" title="Yên Bái"/>
    <path d="M440.13,9.57L441.24,8.9L442,9.66L443.02,7.27L442.51,5.8L443.05,3.35L444.39,3.89L445.75,3.76L447.11,6.11L448.48,5.21L448.34,4.29L449.93,2.51L449.49,1.32L450.67,-0.03L450.08,-1.05L451.36,-1.76L450.94,-3.22L451.77,-5.1L451.21,-6.73L451.75,-7.98L453.12,-8.69L452.11,-10.78L452.65,-11.78L455.04,-11.02L455.62,-10.33L457.85,-9.76L458.58,-8.33L459.48,-8.32L460.26,-9.45L462.97,-9.04L463.59,-8.27L465.3,-8.08L467.3,-9.19L468.67,-9.16L468.55,-8.58L469.99,-6.18L470.6,-6.07L471.44,-4.54L471.46,-3.14L469.85,-2.03L469.56,0.09L468.11,0.57L467.94,2.73L467.19,3.04L467.01,5.04L465.68,5.44L464.79,6.66L464.47,8.26L465.78,10.23L467.07,10.72L465.8,12.49L466.3,13.24L465.8,14.19L466.82,15.32L467.11,16.83L468.71,18.66L469.67,19.08L469.55,21.14L468.12,22.46L468.54,23.47L468.05,24.55L467.09,24.51L467.12,26.72L467.73,27.74L466.48,30.92L467.2,33.25L469.12,35.12L468.24,36.74L466.82,37.46L464.44,37.95L462.77,37.72L461.97,37.18L460.03,37.91L457.67,36.27L455.9,32.78L456.29,31.57L455.03,31.41L453.88,30.38L452.99,30.37L450.06,29.08L449.36,27.68L450.14,25.39L448,21.85L447.06,21.57L447.25,19.99L445.88,19.96L446.44,17.81L446.02,17.19L446.35,15.51L444.21,15.81L444.01,15.12L441.51,14.28L440.79,13.24Z" class="land" id="VN-07" title="Tuyên Quang"/>
    <path d="M496.02,1.05L497.3,-1.58L498.25,-1.98L499.82,-1.42L500.27,-0.54L502.64,0.93L503.37,2.38L504.8,1.68L507.11,2.39L508.62,1.88L508.87,0.79L509.96,0.66L510.63,-0.22L511.72,-0.33L512.87,1.37L512.15,1.89L512.13,3.03L515.55,3.09L516.13,4.73L517.65,7.82L517.4,8.69L516.27,9.55L516.95,10.41L517.45,12.83L518.08,13.3L517.43,15.1L517.85,16.3L516.9,17.12L516.91,18.13L518.35,18.4L519.1,16.99L521.09,17.05L522.19,18.42L523.66,18.18L526.6,18.37L527.1,20.17L528.44,20.69L530.09,19.67L532.55,20.17L532.68,21.78L531.04,23L530.94,24.56L534.79,25.97L535.93,27.24L537.79,27.91L539.79,29.58L541.11,28.65L542.7,28.12L543.61,29.64L545.03,31.13L545.2,34.06L544.18,34.53L542.27,34.37L541.62,35.56L540.34,36.16L539.81,37.39L540.34,38.94L540.15,40.95L541.12,42.37L540.61,43.78L539.09,42.84L537.07,43.92L534.31,43.35L533.34,44.62L531.39,45.51L529.52,44.07L529.43,42.34L530.2,41.49L529.47,40.72L526.33,41.11L525.49,40.23L525.4,38.61L523.58,38.42L524.17,37.27L523.5,35.71L521.94,35.72L521.12,34.99L520,35.26L518.91,36.32L517.5,35.22L517.62,34.31L516.26,33.65L514.82,33.99L513.97,33.69L511.53,34.3L509.47,37.17L510.04,38.21L508.92,38.93L508.41,40.34L507.64,40.84L505.72,40.82L504.01,42.65L502.48,42.49L501.79,41.81L502.14,40.89L501.22,40.21L500.1,40.19L500.28,38.56L498.67,38.73L495.27,37.67L495.32,34.24L495.97,33.85L496.25,32.1L497.67,30.69L498.18,29.18L494.48,27.29L493.97,26.3L492.93,26.43L492.24,24.8L492.92,23.6L492.98,21.88L493.74,20.63L492.37,19.91L492.93,18.87L492.89,16.7L492.24,15.79L492.44,14.31L493.4,13.75L494.81,13.9L495.81,11.92L498.01,9.84L497.49,8.64L498.17,8.03L498.57,6.58L496.59,4.21L497.41,2.79Z" class="land" id="VN-09" title="Lạng Sơn"/>
    <path d="M544.35,63.28L546.61,64.15L544.87,65.1ZM561.36,58.09L562.98,59.57L561.96,60.41L560.61,58.94ZM553.37,57.22L552.59,60.03L551.68,62.37L548.86,63.07L548.07,63.97L546.54,63.22L549.91,61.41L550.59,59.32L552.47,57.39ZM565.8,57.17L565.89,57.99L564.39,59.33L564.05,58.45L565.06,57.24ZM526.1,61.09L527.96,63.02L526.17,62.95L525.38,62.33ZM549.34,47.64L549.92,47.76L552.02,49.66L552.78,50.85L555.62,50.07L554.49,51.65L552.36,53.42L550.65,54.45L549.58,55.6L548.75,55.73L546.53,57.1L545.43,55.94L546.02,55.79L546,55.24L546.61,54.78L547.53,53.46L547.39,51.4L548.91,49.72ZM572.03,42.44L570.38,43.34L569.55,44.26L566.94,44.12L565.38,44.96L565.48,43.33L567.89,43.17L570.15,42.55ZM556.45,53.85L555.06,57.82L554.45,57.38L554.63,56.08ZM554.34,54.2L553.94,55.62L552.53,56.46L552.04,55.33L552.98,54.33ZM517.78,59.11L515.51,58.29L513.8,58.21L512.31,56.7L509.8,57.16L508.6,56.26L507.31,56.37L506.68,55.84L507.53,54.29L508.46,53.74L508.42,52.47L509.23,49.72L510.33,49.79L510.96,51.08L512.59,51.08L513.75,51.95L517.41,51.99L518.41,52.44L521.4,52.87L522.78,52.23L522.8,51.23L524,51.21L524.74,51.83L526.55,51.39L527.37,52.04L529.43,48.29L528.9,47.22L530.49,46.78L531.39,45.51L533.34,44.62L534.31,43.35L537.07,43.92L539.09,42.84L540.61,43.78L541.12,42.37L540.15,40.95L540.34,38.94L539.81,37.39L540.34,36.16L541.62,35.56L542.27,34.37L544.18,34.53L545.2,34.06L546.08,34.21L548.1,31.94L549.57,31.33L550.88,32.58L550.88,34.24L552.79,34.48L553.42,33.49L555.17,33.74L558.41,33.63L559.98,33.11L562.75,31.7L564.16,31.6L565.23,32.31L565.9,31.77L567.19,32.94L567.68,34.47L569.41,35.2L569.94,36.6L573.98,35.88L573.2,36.98L574.51,38.39L572.33,39.37L570.57,41L568.36,40.44L568.48,39.09L567.35,37.77L565.14,39.22L563.64,39.35L562.18,40.63L561.46,42.33L558.34,43.19L557.21,44.08L555.82,46.52L554.56,47.32L551.35,46.82L547.33,47.71L548.24,48.24L548.35,49.2L547.17,49.95L546.51,51.23L546.19,54.37L545.54,55.05L545.83,55.55L544.97,55.91L545.39,56.28L545.26,57.42L545.66,58.14L544.32,59.3L542.77,59.01L540.15,59.46L539.08,60.43L538.43,61.84L536.09,61.81L532.64,60.85L531.38,61.42L529.96,60.75L527.54,61.21L526.66,60.46L525.52,60.6L525.12,62.23L525.42,63.14L524.09,64.56L523.77,63.19L522.99,62.32L520.62,61.54L520.55,60.08L519.64,59.08ZM522.97,65.69L520.4,65.34L519.92,64.03L520.74,61.96L522.79,62.34L524.62,66.03L523.52,66.67Z" class="land" id="VN-13" title="Quảng Ninh"/>
    <path d="M478.58,77.27L479.68,79.51L482.07,80.92L482.3,83.09L480.87,83.43L479.93,82.66L477.85,82.55L478.21,85.06L475.97,83.67L475.38,84.49L476.94,86.72L475.16,88.13L473.31,86.75L470.74,85.44L469.14,85.76L467.6,85.84L464.62,84.8L463.43,85.32L460.89,84.56L459.11,83.29L457.24,82.75L457.62,81.87L456.67,80.49L454.93,79.23L453.56,79.37L451.92,77.63L449.75,76.71L448.66,77.45L447.42,77.52L444.91,75.49L444.32,73.98L441.83,72.88L440.03,73.63L439.64,73.3L440.15,71.5L439.72,69.56L441.52,68.81L443.26,69.81L445.32,70.52L446.19,69.52L446.67,67.91L446.71,65.58L445.55,63.03L443.92,61.92L443.18,60.56L442.07,59.62L440.92,57.84L440.3,55.9L441.29,54.98L442.75,54.46L443.87,56.77L444.91,56.58L446.85,57.51L448.24,58.69L449.4,59.16L450.3,60.76L451.93,61.69L455.08,61.16L454.95,62.57L456.77,61.37L457.96,62.24L460.86,61.57L459.72,58.59L461.29,58.78L462.62,58.36L465.62,58.54L468.56,60.59L467.43,62.01L469.65,63.07L469.83,64.08L471.03,65.58L472.22,66.14L472.93,67.76L473.29,69.62L474.94,71.7L474.83,72.92L475.88,75.71L477.51,75.87Z" class="land" id="VN-14" title="Hòa Bình"/>
    <path d="M478.58,77.27L477.51,75.87L475.88,75.71L474.83,72.92L474.94,71.7L473.29,69.62L472.93,67.76L472.22,66.14L471.03,65.58L469.83,64.08L469.65,63.07L467.43,62.01L468.56,60.59L465.62,58.54L462.62,58.36L461.29,58.78L459.72,58.59L458.75,56.87L459.82,54.35L458.45,52.17L459.14,51.09L460.62,50.34L461.27,48.59L461.42,47.02L463.02,46.4L464.59,47.06L464.99,48.03L465.72,49.9L466.08,51.72L467.02,52.37L469.77,52.5L472.48,51.77L472.86,52.47L475.8,53.2L477.04,53.98L476.85,57.09L477.19,59.27L478.47,59.75L479.73,59.67L479.53,62.64L480.55,63.18L484.03,63.06L485.34,64.35L485.46,65.3L484.53,66.2L485.29,68.02L486.86,68.58L487.12,71.62L488.37,71.46L487.3,73.09L485.95,73.53L484.88,72.65L483.17,74.02L481.31,73.83L480.51,74.39L479.72,77.13Z" class="land" id="VN-15" title="Hà Tây"/>
    <path d="M469.14,85.76L470.74,85.44L473.31,86.75L475.16,88.13L476.94,86.72L475.38,84.49L475.97,83.67L478.21,85.06L477.85,82.55L479.93,82.66L480.87,83.43L482.3,83.09L484.16,85.3L485.52,85.52L486.34,86.13L485.58,87.16L486.8,87.78L487.62,88.75L487.49,89.91L490.58,91.81L492.29,90.32L492.71,91.84L494.32,91.4L495.02,92.98L495.27,95.45L494.48,96.6L494.11,98.21L493.03,98.94L492.24,102.11L492.53,103.66L492.23,104.57L490.81,104.25L489.33,102.59L489.33,101.29L490.4,100.74L491.37,98.54L489.22,98.43L488.11,98.04L486.62,98.15L485.08,96.63L482.78,95.69L479.61,93.79L477.42,93.15L475.43,91.63L473.62,89.45L472.38,89.1L471.5,87.85L470.68,87.86L469.39,86.92Z" class="land" id="VN-18" title="Ninh Bình"/>
    <path d="M499.51,72.28L500.91,72.07L502.17,71.19L503.21,71.59L505.29,70.45L504.99,72.12L506.56,73.22L507.06,74.98L508.39,75.84L508.86,75.12L510.82,75.47L513.4,74.14L515.24,75L512.92,77.76L512.62,79.49L513.62,80.91L512.86,81.68L513.34,82.93L512.38,85.55L513.31,87.58L512.28,89.29L511.65,89.02L510.28,87.67L507.54,88.81L506.2,88.26L504.94,86.79L503.14,86.13L502.41,85.11L499.88,87.12L498.87,86.03L500.1,85.01L499.7,84.04L497.43,83.71L497.01,82.97L497.64,81.34L495.91,80.63L495.43,78.06L493.77,76.87L493.3,75.1L492.86,74.03L494.35,73.36L496.71,73.98Z" class="land" id="VN-20" title="Thái Bình"/>
    <path d="M440.03,73.63L441.83,72.88L444.32,73.98L444.91,75.49L447.42,77.52L448.66,77.45L449.75,76.71L451.92,77.63L453.56,79.37L454.93,79.23L456.67,80.49L457.62,81.87L457.24,82.75L459.11,83.29L460.89,84.56L463.43,85.32L464.62,84.8L467.6,85.84L469.14,85.76L469.39,86.92L470.68,87.86L471.5,87.85L472.38,89.1L473.62,89.45L475.43,91.63L477.42,93.15L479.61,93.79L482.78,95.69L485.08,96.63L486.62,98.15L488.11,98.04L489.22,98.43L491.37,98.54L490.4,100.74L489.33,101.29L489.33,102.59L487.65,103.28L486.34,104.26L486.07,106.44L485.39,108.74L485.72,109.53L483.98,112.54L482.48,112.82L481.5,114.81L480.41,119.29L480.22,123.69L479.48,125.9L479.45,127.51L480.62,129.22L480.14,130.7L478.52,130.52L477.53,129.22L476.29,130.02L474.26,129.59L474.26,128.49L472.42,126.67L471.09,127.14L468.72,123.57L466.08,123.6L465.06,124.3L463.93,123.52L463.3,123.95L461.22,120.23L460.42,120.48L458.94,122.44L458.08,122.12L457.72,120.56L458.28,118.99L457.85,117.1L456.87,115.22L455.86,115.57L454.11,114.17L453.28,112.65L452.16,111.61L451.84,109.22L452.02,108.13L452.84,106.93L454.38,106.54L452.93,104.13L451.87,104.16L450.41,103.46L448.49,103.79L445.37,102.03L444.68,101.32L442.57,100.97L443.67,99.46L445.28,98.32L444.83,96.21L443.18,94.94L440.68,94.98L437.06,92.61L434.73,92.49L431.01,91.31L430.3,90.72L430.17,89.39L430.64,86.6L430.45,85.8L434.31,83.74L432.22,81.04L430.78,81.6L430.36,83L428.24,83.49L424.49,85.47L422.25,85.16L421.56,84.07L421.93,83.17L420.58,82.03L420.38,81.34L422.93,79.64L424.48,79.32L425.48,78.17L426.66,77.8L427.28,75.88L428.19,75.48L429.8,75.58L431.41,73.62L432.42,74.85L433.85,75.74L434.9,75.71L435.71,76.95L438.16,76.57L438.07,75.05Z" class="land" id="VN-21" title="Thanh Hóa"/>
    <path d="M442.57,100.97L444.68,101.32L445.37,102.03L448.49,103.79L450.41,103.46L451.87,104.16L452.93,104.13L454.38,106.54L452.84,106.93L452.02,108.13L451.84,109.22L452.16,111.61L453.28,112.65L454.11,114.17L455.86,115.57L456.87,115.22L457.85,117.1L458.28,118.99L457.72,120.56L458.08,122.12L458.94,122.44L460.42,120.48L461.22,120.23L463.3,123.95L463.93,123.52L465.06,124.3L466.08,123.6L468.72,123.57L471.09,127.14L472.42,126.67L474.26,128.49L474.26,129.59L476.29,130.02L477.53,129.22L478.52,130.52L480.14,130.7L479.05,131.39L478.48,133.2L477.31,133.53L477.03,134.85L476.97,137.5L477.36,138.32L475.41,139.27L474.05,138.95L472.64,141.14L472.32,143.18L472.49,144.93L473.07,146.95L475.35,147.95L476.37,149.21L476.96,151.09L478.37,152.57L477.49,153.51L478.5,155.74L478.36,156.47L476.35,156.65L475.28,159.58L472.6,160.75L469.28,161.41L468.65,161.04L467.53,158.97L466.37,159.09L462.22,160.31L460.61,159.81L458.22,158.42L455.56,159.51L454.37,159.39L454.7,157.57L453.49,157.02L452.13,155.64L447.22,153.57L444.04,153.63L443.87,152.29L442.85,151.61L438.11,151.9L437.4,151.03L436.49,151.39L433.61,149.66L430.96,147.84L428.95,146.83L427.34,143.8L426.14,143.53L425.38,142.52L424.37,143.28L423.28,143.36L422.19,142.44L421.32,140.47L419.95,139.59L419.14,139.65L417.56,138.9L417.16,137.95L416.03,137.61L414.98,138L413.53,137.27L413.97,136.14L412.94,135.89L412.15,134.43L409.96,134.12L409.29,133.34L407.55,132.33L404.64,132.97L402.98,132.1L401.11,130.01L399.34,129.74L402.61,127.72L402.79,126.68L404.43,125.7L405.1,125.82L407.73,123.9L408.89,120.87L409.04,118.88L408.16,118.33L407.09,116.77L406.99,115.42L407.52,114.16L409.06,115.02L411.06,114.68L411.25,113.56L412.68,113.64L414.37,113.14L417.31,113.57L418.77,114.36L419.26,113.78L421.48,113.29L423.62,115.28L425.13,115.29L425.8,116.54L428.09,116.95L430.05,116.13L431.07,116.66L432.68,114.05L432.87,113L434.47,111.15L436.15,111.34L437.93,109.66L439.39,109.62L439.45,107.04L440.05,106.34L439.93,103.96L442.4,102.24Z" class="land" id="VN-22" title="Nghệ An"/>
    <path d="M509.63,186.16L507.08,186.6L506.81,185.78L502.47,184.83L501.79,186.03L501.03,186.04L499.11,188.01L498.31,187.4L495.3,188.06L491.48,187.28L490.15,186.73L490.26,185.94L491.51,184.99L490.78,183.92L489.14,183.45L487.67,181.8L486.9,182.16L485.51,180.82L483.87,180.73L481.92,182.06L482.47,183.26L478.93,183.78L477,183.06L475.96,184.8L473.35,184.8L472.1,183.99L470.74,183.9L470.86,182.61L470.33,180.98L469.03,181.06L468.83,179.64L467.59,179.29L467.88,178.23L467.46,176.71L465.68,175.89L464.83,176.87L464.03,176.81L463.56,178.05L462.49,177.38L460.51,176.86L459.83,176.11L460.3,173.92L458.96,173.84L457.24,173.23L456.61,172.1L454.16,170.91L454.35,169.72L453.68,168.1L451.5,166.97L450.78,165.78L451.26,161.97L451.84,161.57L452.1,159.75L453.14,158.84L454.37,159.39L455.56,159.51L458.22,158.42L460.61,159.81L462.22,160.31L466.37,159.09L467.53,158.97L468.65,161.04L469.28,161.41L472.6,160.75L475.28,159.58L476.35,156.65L478.36,156.47L478.5,155.74L477.49,153.51L478.37,152.57L479.04,153.04L479.85,156.56L480.94,159.36L482.3,161.76L485,165.53L485.95,165.62L487.95,168.5L491.3,172.04L493.38,173.33L494.93,173.3L498.1,175.45L498.81,175.5L501.02,177.94L503.45,179.94L505.18,180.33L506.49,182.09L507.84,184.54Z" class="land" id="VN-23" title="Hà Tĩnh"/>
    <path d="M473.35,184.8L475.96,184.8L477,183.06L478.93,183.78L482.47,183.26L481.92,182.06L483.87,180.73L485.51,180.82L486.9,182.16L487.67,181.8L489.14,183.45L490.78,183.92L491.51,184.99L490.26,185.94L490.15,186.73L491.48,187.28L495.3,188.06L498.31,187.4L499.11,188.01L501.03,186.04L501.79,186.03L502.47,184.83L506.81,185.78L507.08,186.6L509.63,186.16L509.24,187.7L508.44,187.83L507.14,189.87L506.91,191.98L507.68,194.63L509.31,197.91L511.19,200.41L512.71,203.18L515.71,207.49L517.51,209.48L520.45,212.31L523.25,214.73L526.88,217.44L529.86,219.46L527.85,221.46L525.08,222.99L524.38,224.13L521.83,225.42L521.89,226.59L521.04,226.84L520.79,229.19L519.34,229.57L516.96,228.11L515.86,228.93L513.63,228.82L512.69,226.71L511.25,226.39L509.79,227.47L506.63,226.49L505.95,224.93L505.06,224.06L505.64,222.99L503.96,221.74L502.37,219.24L500.97,217.59L502.22,216.5L500.99,215.5L500.95,213.94L499.76,213.97L499.85,215.22L498.1,215.82L495.05,213.57L493.88,212.29L492.08,211.16L482.48,200.06L479.05,198.07L477.83,198.34L477.54,196.17L476.97,195.16L475.76,194.45L474.7,193.04L475.05,192.03L474.61,190.9L471.86,189.63L472.52,186.92L473.31,186.05Z" class="land" id="VN-24" title="Quảng Bình"/>
    <path d="M546.25,237.05L545.52,237.39L544.65,238.96L542.86,241.31L543.78,242.67L541.38,244.42L540.34,243.55L535.93,244.18L535.14,245.01L533.16,245.41L532.35,246.3L534.05,246.99L535.22,247.89L535.73,249.05L535.22,249.6L532.55,249.34L532.13,250.3L532.56,251.88L531.04,253.23L531.21,255.1L528.4,255.38L528.58,253.29L526.9,252.68L525.79,251.77L524.92,248.46L525.31,246.27L524.31,245.47L522.98,245.14L522.88,246.26L521.78,248.7L520.66,248.89L520.14,250.32L518.6,250.32L517.02,249.74L515.31,245.56L516.36,244.66L515.27,243.25L513.75,242.7L511.91,241.34L511.3,239.06L511.3,231.92L509.75,230.63L509.97,229.55L511.14,229.39L511.25,226.39L512.69,226.71L513.63,228.82L515.86,228.93L516.96,228.11L519.34,229.57L520.79,229.19L521.04,226.84L521.89,226.59L521.83,225.42L524.38,224.13L525.08,222.99L527.85,221.46L529.86,219.46L531.55,220.74L535,222.72L534.75,225.68L536.19,228.09L538.07,230.24L543.12,234.72Z" class="land" id="VN-25" title="Quảng Trị"/>
    <path d="M579.99,259.28L578.41,259.48L576.86,260.5L575.72,260.54L572.47,259.98L571.37,259.13L570.01,260.17L568.14,259.07L566.65,259.85L566.63,261.35L565.97,261.67L565.83,263.3L564.85,264.04L564.27,265.63L563.09,265.33L560.42,266.83L559.63,268.24L558.37,268.13L557.79,267.32L555.97,266.71L555.94,265.42L553.17,266.22L552.94,267.62L551.43,267.4L550.54,266.37L549.56,267.03L548.7,266.44L548.56,264.61L547.24,264.55L544.19,265.76L542.9,264.69L541.01,262.35L540.17,261.91L538.98,262.17L536.71,261.06L536.06,259.14L536.58,257.36L536.1,256.76L533.63,255.03L533.04,255.38L531.21,255.1L531.04,253.23L532.56,251.88L532.13,250.3L532.55,249.34L535.22,249.6L535.73,249.05L535.22,247.89L534.05,246.99L532.35,246.3L533.16,245.41L535.14,245.01L535.93,244.18L540.34,243.55L541.38,244.42L543.78,242.67L542.86,241.31L544.65,238.96L545.52,237.39L546.25,237.05L551.89,241.42L554.22,243.35L548.72,240.57L549.14,241.45L550.79,243.04L551.98,243.13L553.5,244.26L554.16,244.17L556.24,245.28L556.27,246.39L557.15,247.67L558.67,246.42L559.26,247.44L561.62,249.18L563.87,251.94L562.72,252.04L562.37,252.85L563.33,254.09L563.23,254.94L564.22,255.96L567.13,256.56L568.27,255.87L568.69,254.41L569.96,253.66L570.52,254.54L571.87,255.02L573.33,254.07L573.9,257.04L573.57,258.51L574.3,259.01L575.76,258.5L576.85,259.19L578.06,258.81ZM558.61,245.35L562.78,248.46L566.87,252.09L568.39,253.06L567.18,253.71L565.59,253.3L564.67,252.02L562.32,249.91L561.01,247.63Z" class="land" id="VN-26" title="Thừa Thiên–Huế"/>
    <path d="M549.56,267.03L550.54,266.37L551.43,267.4L552.94,267.62L553.17,266.22L555.94,265.42L555.97,266.71L557.79,267.32L558.37,268.13L559.63,268.24L560.42,266.83L563.09,265.33L564.27,265.63L566.11,265.49L567.76,266.66L569.31,265.67L571.17,267.58L571.04,268.57L569.73,270.21L571.27,271.47L573.56,270.8L575.23,271.19L576.43,270.25L577.62,270.98L578.28,270.04L579.33,270.6L580.65,270.47L582.17,269.14L583.14,269.75L583.94,269.45L585.57,271.32L588.17,272.86L588.64,273.43L589.39,276.41L592.57,281.73L595.91,286.45L596.79,287.92L595.92,288.63L596.39,289.81L598.11,290.01L597.91,290.91L599.54,291.74L600.98,291.46L602.72,293.23L601.85,294.31L598.67,294.5L593.82,296.49L592.94,296.24L592.11,297.02L590.19,296.83L587.09,297.58L585.2,297.31L584.41,298.03L584.67,300.43L584.17,302.86L582.64,305.02L581.97,307.18L581.84,308.58L580.74,308.54L579.24,307.35L577.97,307.97L578.12,309.8L578.66,310.94L576.33,311.91L574.5,311.19L573.82,310.19L571.43,309.93L570.68,309.37L569.83,307.64L570.85,306.98L572.01,304.01L571.84,303.34L569.78,302.55L568.96,301.23L567.31,301.8L566.46,301.07L564.84,301.18L562.61,300.77L560.95,299.97L560.46,297.21L559.63,297.19L557.76,295.06L557.71,293.81L556.16,292.54L555.26,292.28L553.46,293.4L551.68,292.4L552.06,291.39L551.53,290.13L549.74,289.12L548.04,289.4L546.03,289.25L545.32,286.06L544.42,284.21L542.21,283.8L541.09,282.35L541.56,280.45L540.46,279.49L538.96,278.99L539.64,277.1L538.87,275.35L544.57,272.51L546.66,272.67L547.57,271.16Z" class="land" id="VN-27" title="Quảng Nam"/>
    <path d="M556.16,292.54L557.71,293.81L557.76,295.06L559.63,297.19L560.46,297.21L560.95,299.97L562.61,300.77L564.84,301.18L566.46,301.07L567.31,301.8L568.96,301.23L569.78,302.55L571.84,303.34L572.01,304.01L570.85,306.98L569.83,307.64L570.68,309.37L571.43,309.93L573.82,310.19L574.5,311.19L576.33,311.91L578.66,310.94L578.12,309.8L577.97,307.97L579.24,307.35L580.74,308.54L581.84,308.58L583.7,311.33L584.9,312.12L585.28,313.5L587.15,314.92L587.59,316.33L588.74,317.37L589.71,317.5L590.96,318.64L592.49,318.21L593.95,320.51L592.7,322.29L593.27,323.07L592.1,324.75L592.44,325.7L593.87,325.61L594.71,327.03L593.93,328.44L592.48,328.94L590.27,328.47L589.27,327.82L588.69,326.67L587.54,326.56L586.85,328.11L587.88,329.68L585.49,332.51L585.34,333.18L583.34,335.52L580.6,335.51L578.97,336.29L578.31,337.08L576.65,336.48L576.21,337.56L575.15,337.75L574.37,340.57L573.51,340.08L572.57,341.19L571.1,341.43L570.18,342.12L569.02,341.61L567.65,340.09L565.03,340.45L565.07,341.86L564.21,342.73L562.8,342.24L561.83,343.22L559.3,342.66L558.43,339.7L558.63,338.38L560.12,338.04L560.98,336.37L560.24,335.84L559.43,332.7L558.51,331.79L555.99,333.08L554.42,333.16L552.68,332.44L551.18,332.52L551.26,331.48L552.33,328.54L551.71,327.31L553.49,325.72L552.76,322.79L552.68,320.4L551.35,318.41L551.88,317.66L554.69,315.56L554.48,314.38L552.58,313.73L551.2,312.85L550.05,311.61L549.6,309.58L552.63,307.81L554.46,308.69L554.88,307.73L556.03,307.74L555.04,306.2L556.08,305.44L556.25,303.61L554.7,301.73L555.96,301.01L556.13,300.08L555.77,297.87L556.21,295.97L554.98,293.87Z" class="land" id="VN-28" title="Kon Tum"/>
    <path d="M617.06,327.52L615.67,326.43L615.54,325.31L614.35,323.85L612.72,323.62L610.65,322.28L609.03,323.15L606.92,322.65L605.85,323.65L603.59,323.82L603.76,326.59L602.65,327.06L601.52,326.41L598.61,328.03L598.1,328.91L597.21,329.33L596.78,328.14L594.71,327.03L593.87,325.61L592.44,325.7L592.1,324.75L593.27,323.07L592.7,322.29L593.95,320.51L592.49,318.21L590.96,318.64L589.71,317.5L588.74,317.37L587.59,316.33L587.15,314.92L585.28,313.5L584.9,312.12L583.7,311.33L581.84,308.58L581.97,307.18L582.64,305.02L584.17,302.86L584.67,300.43L584.41,298.03L585.2,297.31L587.09,297.58L590.19,296.83L592.11,297.02L592.94,296.24L593.82,296.49L598.67,294.5L601.85,294.31L602.72,293.23L604.24,293.84L606.26,292.74L606.49,294.12L607.28,295.18L608.8,296.3L608.2,297.33L609.9,299.52L611.23,299.71L610.74,301.05L609.32,301.72L609.42,303.64L609.02,304.81L610.12,308.67L611.74,313.16L613.87,317.51L615.43,320.16L616.88,322.2L617.13,323.78L616.38,324.51Z" class="land" id="VN-29" title="Quảng Ngãi"/>
    <path d="M551.18,332.52L552.68,332.44L554.42,333.16L555.99,333.08L558.51,331.79L559.43,332.7L560.24,335.84L560.98,336.37L560.12,338.04L558.63,338.38L558.43,339.7L559.3,342.66L561.83,343.22L562.8,342.24L564.21,342.73L565.07,341.86L565.03,340.45L567.65,340.09L569.02,341.61L570.18,342.12L571.1,341.43L572.57,341.19L573.51,340.08L574.37,340.57L575.15,337.75L576.21,337.56L576.65,336.48L578.31,337.08L578.97,336.29L580.6,335.51L583.34,335.52L585.34,333.18L585.49,332.51L587.88,329.68L586.85,328.11L587.54,326.56L588.69,326.67L589.27,327.82L590.27,328.47L592.48,328.94L593.93,328.44L594.71,327.03L596.78,328.14L597.21,329.33L598.1,328.91L598.24,330.89L598.75,331.78L597.55,334.44L598.36,336.11L598.89,339.24L599.46,339.94L600.33,343.58L600.15,345.43L602.05,348.94L603.38,349.78L603.79,351.94L603.06,353.99L602.95,355.46L604.11,357.25L605.17,358.15L605.34,359.75L606.2,360.02L606.77,362.62L606.65,363.93L605.87,364.41L606.21,366.27L607.41,369.07L607.39,369.7L604.69,369.32L603.16,369.79L602.27,371.74L601.25,373.14L601.68,374.06L603,374.33L604.47,373.98L605.55,375.23L605.66,378.53L608.35,381.78L607.94,384.02L607.37,384.4L606.92,386.34L603.69,387.82L603.21,389.54L603.47,392.1L600.85,392.77L600.35,393.56L598.82,393.03L597.52,393.16L596.58,392.23L595.59,392.64L593.3,392.02L593.55,390.49L592.22,388.81L591.13,388.45L591.24,386.69L590.12,385.93L589.25,384.2L588.9,382.67L587.41,382.29L587.42,380.82L586.62,379.71L583.91,378.82L582.88,377.89L582,378.08L579.27,377.43L578.58,376.7L576.52,376.05L573.34,376.63L569.46,377.87L567.97,377.21L565.65,377.19L565.13,376.73L563.56,377.01L562.03,378.23L559.03,377.98L557.23,379.16L557.18,379.79L555.45,380.68L556.4,378.39L555.85,371.5L553.97,367.47L553.88,365.75L553.11,364.6L552.36,362.43L548.95,360.32L549.12,358.91L549.87,357.63L549.86,355.17L548.97,354.63L549.07,352.54L548.59,351.84L546.23,352.17L544.98,350.54L545.32,349.01L546.08,348.44L543.97,347.3L545.08,344.57L545.82,344.2L547.15,341.9L547.1,339.27L546.44,338.11L547.33,336.63L549.35,334.78L550.5,334.79Z" class="land" id="VN-30" title="Gia Lai"/>
    <path d="M598.1,328.91L598.61,328.03L601.52,326.41L602.65,327.06L603.76,326.59L603.59,323.82L605.85,323.65L606.92,322.65L609.03,323.15L610.65,322.28L612.72,323.62L614.35,323.85L615.54,325.31L615.67,326.43L617.06,327.52L616.46,327.91L617.56,331.22L618.87,333.07L618.49,333.98L619.04,335.16L618.77,336.03L621.13,339.7L621.95,341.87L621.24,342.37L621.6,344.21L620.25,344.55L620.95,346.47L622.03,346.63L623.45,349.85L624.26,350.91L624.42,352.13L623.84,354.14L624.93,355.94L625.9,356.88L626.18,358.83L625.61,359.84L625.96,360.87L624.5,361.84L624.5,359.6L624.07,357.23L623.37,356.5L623.01,358.91L623.34,361.38L622.65,362.24L623.38,365.48L622.33,365.01L620.19,365.13L620.02,366.96L619.18,366.66L618.38,368.69L617.12,369.72L615.86,369.67L614.85,371.25L613.38,371.87L611.94,371.93L610.35,370.85L608.13,371.09L607.39,369.7L607.41,369.07L606.21,366.27L605.87,364.41L606.65,363.93L606.77,362.62L606.2,360.02L605.34,359.75L605.17,358.15L604.11,357.25L602.95,355.46L603.06,353.99L603.79,351.94L603.38,349.78L602.05,348.94L600.15,345.43L600.33,343.58L599.46,339.94L598.89,339.24L598.36,336.11L597.55,334.44L598.75,331.78L598.24,330.89Z" class="land" id="VN-31" title="Bình Định"/>
    <path d="M607.39,369.7L608.13,371.09L610.35,370.85L611.94,371.93L613.38,371.87L614.85,371.25L615.86,369.67L617.12,369.72L618.38,368.69L619.18,366.66L620.02,366.96L620.19,365.13L622.33,365.01L623.38,365.48L623.08,366.62L624.8,369.17L624,371.49L625.64,372.17L625.89,373.28L626.91,374.25L626.69,376.19L625.04,376.11L625.9,374.4L623.81,373.12L622.84,374.74L624.08,378.13L625.98,378.25L625.21,380.7L624.36,381.53L624.69,382.99L626,381.37L626.94,382.79L625.91,384.42L626.26,385.65L626.03,387.69L627.63,390.02L629.42,393.2L631.71,395.71L632.83,397.75L631.17,398.6L629.98,400.01L629.02,398.96L627.99,399.85L625.67,400.48L624.4,400.24L623.26,401.31L622.43,400.58L620.7,400.72L619.59,402.59L618.23,402.94L617.06,404.21L615.39,404.12L613.43,405.73L612.99,404.21L613.13,402.61L612.44,401.16L611.32,401.61L608.18,401.16L607.33,399.53L605.91,398.69L604.91,398.88L603.25,395.76L601.95,395.38L600.27,394.25L600.35,393.56L600.85,392.77L603.47,392.1L603.21,389.54L603.69,387.82L606.92,386.34L607.37,384.4L607.94,384.02L608.35,381.78L605.66,378.53L605.55,375.23L604.47,373.98L603,374.33L601.68,374.06L601.25,373.14L602.27,371.74L603.16,369.79L604.69,369.32Z" class="land" id="VN-32" title="Phú Yên"/>
    <path d="M555.45,380.68L557.18,379.79L557.23,379.16L559.03,377.98L562.03,378.23L563.56,377.01L565.13,376.73L565.65,377.19L567.97,377.21L569.46,377.87L573.34,376.63L576.52,376.05L578.58,376.7L579.27,377.43L582,378.08L582.88,377.89L583.91,378.82L586.62,379.71L587.42,380.82L587.41,382.29L588.9,382.67L589.25,384.2L590.12,385.93L591.24,386.69L591.13,388.45L592.22,388.81L593.55,390.49L593.3,392.02L595.59,392.64L596.58,392.23L597.52,393.16L598.82,393.03L600.35,393.56L600.27,394.25L601.95,395.38L603.25,395.76L604.91,398.88L605.91,398.69L607.33,399.53L608.18,401.16L611.32,401.61L612.44,401.16L613.13,402.61L612.99,404.21L613.43,405.73L612.99,407.14L612.96,409.13L612.28,410.19L611.04,409.84L609.21,411.04L609.24,412.28L608.43,413.3L608.64,415.24L608.29,416.36L607,415.93L604.47,414.16L603.13,415.22L601.84,415.05L599.9,417.5L600.76,419.67L600.26,420.7L600.35,422.07L599.71,422.76L596.77,423.72L594.52,422.83L593.16,423.68L592.42,422.5L590.1,424.51L588.05,425.2L586.72,424.62L584.17,426.54L582.7,426.89L582.28,427.89L580.22,428.12L578.8,427.04L577.02,427.94L576.57,427.56L575.52,426.05L575.37,425.16L573.49,423.21L569.84,421.95L569.07,420.98L569,419.63L568.16,418.55L568.57,417.41L569.54,416.85L571.18,416.62L571.89,415.36L570.78,414.07L569.48,413.26L568.17,413.33L567.2,412.75L567.45,411.7L569.11,410.94L568.53,408.25L567.48,405.5L568.09,404.24L566.34,403.89L565.46,401.3L563.62,402.66L560.67,402.61L556.54,401.71L553.47,401.96L553.25,401.12L552.13,400.17L550.93,398.59L550.33,395.83L551.17,394.53L550.6,393.41L550.55,392.07Z" class="land" id="VN-33" title="Đắk Lắk"/>
    <path d="M627.23,408.65L629.75,409.16L630.28,410.5L630.37,412.33L628.88,411.11L626.97,410.07ZM624.98,425.57L626.02,425.64L626.9,427.49L624.96,427.08L623.84,426.5ZM613.43,405.73L615.39,404.12L617.06,404.21L618.23,402.94L619.59,402.59L620.7,400.72L622.43,400.58L623.26,401.31L624.4,400.24L625.67,400.48L627.99,399.85L629.02,398.96L629.98,400.01L628.75,400.47L628.73,402.06L629.57,404.35L631.96,408.2L631.63,410.23L630.33,409.93L630.76,408.77L630.65,407.22L629.07,407.14L629.53,405.5L628.54,403.53L628.52,401.92L627.41,402.08L627.07,403.25L626.29,403.4L624.36,405.87L623.24,406.23L622.44,408.14L621.64,408.92L621.67,411.19L623.52,411.32L623.26,412.66L623.63,413.92L626.03,415.29L625.65,416.16L625.95,417.58L627.1,417.81L627.94,418.7L626.28,419.36L625.54,420.73L622.36,416.97L621.04,416.11L620.12,417.25L620.29,418.04L622.1,419.02L621.86,420.21L622.65,422.89L621.97,424.47L622.18,425.98L622.75,426.43L621.96,428.31L622.84,428.77L622.51,430.14L621.82,430.49L622.14,432.66L623.74,435.71L624.95,436.28L625.14,437.96L624.6,439.29L625.42,440.28L625.01,441.14L623.35,440.25L622.16,440.29L622.67,437.78L621.9,436.71L619.91,439.37L619.06,439.1L618.08,441L618.46,442.18L619.65,442.88L621.08,441.84L621.84,443.14L618.22,443.32L616.86,442.16L615.7,439.52L613.9,438.47L612.91,438.83L610.17,437.26L609.18,437.48L607.28,436.11L607.68,434.54L606.85,434.34L605.72,432.82L604.71,430.09L605.01,428.61L602.45,428.5L601.62,427.29L602.11,426.16L601.45,424.6L601.2,422.37L600.35,422.07L600.26,420.7L600.76,419.67L599.9,417.5L601.84,415.05L603.13,415.22L604.47,414.16L607,415.93L608.29,416.36L608.64,415.24L608.43,413.3L609.24,412.28L609.21,411.04L611.04,409.84L612.28,410.19L612.96,409.13L612.99,407.14Z" class="land" id="VN-34" title="Khánh Hòa"/>
    <path d="M600.35,422.07L601.2,422.37L601.45,424.6L602.11,426.16L601.62,427.29L602.45,428.5L600.84,429.16L600.19,430.19L601.29,431.39L601.6,432.89L600.3,434.73L600.3,435.89L599.5,436.87L599.62,438.8L599.2,439.66L599.16,441.82L598.19,442.38L597.81,443.51L599.83,444.1L599.74,445.78L600.74,446.47L601,447.56L600.41,448.85L594.99,450.64L594.92,451.92L596.19,453.83L595.11,455.53L594.46,455.9L592.51,454.9L591.46,455.42L589.89,455.56L589.33,455.03L586.63,455.94L585.42,454.81L583.5,455.49L582.64,457.23L583.34,458.72L584.16,458.64L584.66,459.79L583.52,460.58L582.53,461.97L580.06,463.58L579.6,464.27L576.69,464.81L574.27,466.91L573.61,466.2L573.05,463.41L570.22,462.38L568.01,461.88L563.36,461.52L560.91,461.74L559.91,462.97L558.51,463.56L555.53,462.67L554.14,461.11L552.76,461.92L550.44,460.5L550.47,459.24L549.03,459.5L548.05,458.67L549.8,457.13L549,456.08L546.22,455.07L544.99,453.65L544.14,454.24L543.04,453.87L542.49,452.61L542.79,451.24L541.41,450.45L541.18,449.42L541.98,448.36L542,446.76L542.66,446.15L546.39,445.01L547.48,445.76L548.16,445.05L549.44,445.25L550.15,443.99L551.03,443.7L553.15,443.97L554.22,442.73L555.91,442L556.36,440.89L557.58,440.46L558.87,438.61L560.5,438.81L560.77,440.49L562.31,441.56L564.45,440.98L564.79,440.39L567.41,440.66L567.19,442.75L568.71,443.74L570.1,442.83L570.77,444.02L574.27,442.05L574.71,442.16L576.06,440.38L576.34,439.22L575.35,438.95L574.68,437.43L573.92,437.09L572.99,435.66L572.31,433.09L570.97,433.05L571.4,430.17L573.64,429.45L576.1,429.55L576.72,428.51L576.57,427.56L577.02,427.94L578.8,427.04L580.22,428.12L582.28,427.89L582.7,426.89L584.17,426.54L586.72,424.62L588.05,425.2L590.1,424.51L592.42,422.5L593.16,423.68L594.52,422.83L596.77,423.72L599.71,422.76Z" class="land" id="VN-35" title="Lâm Đồng"/>
    <path d="M602.45,428.5L605.01,428.61L604.71,430.09L605.72,432.82L606.85,434.34L607.68,434.54L607.28,436.11L609.18,437.48L610.17,437.26L612.91,438.83L613.9,438.47L615.7,439.52L616.86,442.16L618.22,443.32L621.84,443.14L621.43,443.89L623.31,445.81L621.06,448.78L620.6,451.08L619.93,451.31L618.82,453.12L617.47,452.48L614.75,452.97L615.08,454.13L614.2,455.47L613.97,461.04L614.46,462L613.42,462.44L612.1,463.85L610.46,464.08L609,463.02L608.07,463.12L608.07,462.35L607.14,461.29L604.7,460.83L603.51,459.86L603.65,457.42L601.67,457.74L600.23,457.27L599.41,455.98L598.76,454.08L596.19,453.83L594.92,451.92L594.99,450.64L600.41,448.85L601,447.56L600.74,446.47L599.74,445.78L599.83,444.1L597.81,443.51L598.19,442.38L599.16,441.82L599.2,439.66L599.62,438.8L599.5,436.87L600.3,435.89L600.3,434.73L601.6,432.89L601.29,431.39L600.19,430.19L600.84,429.16Z" class="land" id="VN-36" title="Ninh Thuận"/>
    <path d="M507.06,449.05L507.88,451.39L508.84,453.26L508.04,454.24L506.34,454.49L506.02,456.39L505.18,457.71L503.76,458.33L501.9,462.71L502.68,463.52L502.27,464.7L502.99,465.12L502.94,466.67L503.77,466.83L504.53,468.18L504.48,469.3L506.96,471.42L506.09,473.22L506.02,475.05L505.56,476.7L503.17,477.4L500.82,475.95L499.9,476.38L499.67,477.85L498.27,477.59L495.69,478.62L495.13,477.96L496.85,477.97L496.34,476.97L496.09,474.92L494.71,472.84L492.79,474.08L491.98,472.91L489.22,471.19L488.71,469.1L486.72,468.86L485.18,467.97L484.53,467.01L484.41,465.34L482.59,464.9L483.37,462.08L482.86,461.48L484.23,458.4L483.04,457.78L483.44,456.86L483.15,454.13L480.68,453.33L480.32,451.22L481.08,451.17L481.46,449.99L483.71,448.81L485.13,449.93L486.31,450.35L487.47,449.09L487.31,448.53L488.9,446.7L489.04,444.83L491.07,444.39L492.84,445.96L494.73,446.28L496.15,445.58L496.97,446.52L498.7,446.64L500.75,448.6L502.44,448.59L503.51,448L504.96,448.17Z" class="land" id="VN-37" title="Tây Ninh"/>
    <path d="M523.37,481.29L520.15,479L521.54,478.21L520.64,476.8L522.05,475.96L521.66,474.68L522.83,474.33L523.36,475.39L524.78,476.22L526.4,475.35L528.59,472.53L528.11,471.66L528.11,470.2L527.27,469.13L526.16,468.99L526.99,466.72L527.48,464.2L530.21,463.21L532.34,461.53L533.32,459.67L533.23,458.11L534.11,457.06L535.1,456.94L535.79,456.15L543.54,454.5L544.14,454.24L544.99,453.65L546.22,455.07L549,456.08L549.8,457.13L548.05,458.67L549.03,459.5L550.47,459.24L550.44,460.5L552.76,461.92L552.44,463.47L551.71,464.1L551.99,466.51L550.23,467.8L549.19,470.73L548.27,471.61L549.03,472.45L547.72,473.89L547.02,475.26L548.61,475.78L549.88,476.76L551.23,476.5L552.73,477.92L553.47,479.76L553.47,482.53L554.18,483.93L554.03,484.79L552.37,486.2L551.24,486.56L550.38,486.73L549.84,485.7L548.44,485.43L547.59,486.59L546.88,486.73L544.66,489.37L544.93,490.21L543.4,490.93L542.65,490.28L542.9,489.01L542.68,487.32L538.75,487.17L537.68,486.81L536.58,487.77L535.71,490.22L534.13,491.62L532.07,491.4L530.72,491.96L530.38,493.33L529.37,494.5L528.44,493.93L526.81,493.31L525.17,491.73L522.78,492.5L522.01,491.24L519.8,489.69L519.73,488.68L520.56,487.64L522.76,486.37L524.43,486.89L524.39,485.87L525.11,485.14L523.97,483.55Z" class="land" id="VN-39" title="Đồng Nai"/>
    <path d="M611.35,495.71L612.12,497.73L610.78,497.37L610.41,496.01ZM596.19,453.83L598.76,454.08L599.41,455.98L600.23,457.27L601.67,457.74L603.65,457.42L603.51,459.86L604.7,460.83L607.14,461.29L608.07,462.35L608.07,463.12L604.81,463.97L604.35,465.03L603.54,465.19L602.37,469.28L601.61,469.73L599.84,469.01L596.42,469.39L595.47,470.17L593.81,470.62L592.39,472.68L591.67,475.01L589.92,475.11L588.96,475.66L587.42,475.7L586.52,476.75L586.05,478.98L584.81,478.84L583.39,479.46L581.34,478.95L579.76,479.71L577.56,479.81L575.52,480.6L574.66,481.64L573.55,483.82L572.51,488.1L571.61,489.35L570.12,489.29L567.8,488.68L566.54,488.9L563.95,489.92L561.97,491.87L560.47,492.46L559.27,492.45L557.8,493.38L554.33,494.76L552.62,490.38L552.38,488.64L551.05,487.67L551.24,486.56L552.37,486.2L554.03,484.79L554.18,483.93L553.47,482.53L553.47,479.76L552.73,477.92L551.23,476.5L549.88,476.76L548.61,475.78L547.02,475.26L547.72,473.89L549.03,472.45L548.27,471.61L549.19,470.73L550.23,467.8L551.99,466.51L551.71,464.1L552.44,463.47L552.76,461.92L554.14,461.11L555.53,462.67L558.51,463.56L559.91,462.97L560.91,461.74L563.36,461.52L568.01,461.88L570.22,462.38L573.05,463.41L573.61,466.2L574.27,466.91L576.69,464.81L579.6,464.27L580.06,463.58L582.53,461.97L583.52,460.58L584.66,459.79L584.16,458.64L583.34,458.72L582.64,457.23L583.5,455.49L585.42,454.81L586.63,455.94L589.33,455.03L589.89,455.56L591.46,455.42L592.51,454.9L594.46,455.9L595.11,455.53Z" class="land" id="VN-40" title="Bình Thuận"/>
    <path d="M495.13,477.96L495.69,478.62L498.27,477.59L499.67,477.85L499.9,476.38L500.82,475.95L503.17,477.4L503.85,478.32L505.49,478.16L507.22,479.48L510.55,481.18L509.32,485.88L507.64,487.23L508.62,488.34L510,488.61L510.57,490.1L511.28,490.21L512.06,491.42L513.58,491.31L515.09,492.67L517.55,491.52L518.44,491.85L518.85,492.82L518.31,493.53L519.28,495.37L519.55,496.88L518.98,498.07L516.78,500.46L515.99,500.38L515.67,498.76L513.25,500.59L512.87,501.36L511.62,501.59L510.37,500.73L507.7,502.16L505.87,500.99L507.18,499.9L505.11,498.29L503.75,498.45L503.69,497.22L502.81,496.75L501.63,495.01L500.23,494.31L496.82,494.65L492.42,494.79L492.55,497L485.84,496.43L484.52,496.34L481.32,492.15L479.1,491.31L471.38,484.14L472,483.97L470.82,481.58L467.96,480.27L467.3,478.99L469.53,478.79L473.96,477.71L476.61,476.13L479.03,475.76L480.19,478.17L482.58,481.26L481.96,482.79L484,483.57L485.57,483.78L485.33,482.78L486.42,481.92L488.72,483.09L491.27,484.91L492.31,485.1L495.12,484.92L496.22,485.89L496.08,483.73L495.04,481.77L494,480.58L494.55,479.52L494.24,478.02Z" class="land" id="VN-41" title="Long An"/>
    <path d="M516.04,570.66L514.74,573.18L513.26,574.35L513.91,575.67L512.38,575.46L511.69,574.2L513.09,572.14ZM533.23,498.96L534.85,500.09L533.5,500.85L531.82,499.39ZM537.09,500.13L537.9,500.89L536.73,502.61L534.54,503.91L533.54,505.46L532.58,503.95L533.54,502.48L534.32,502.41L535.12,501.31L534.81,500.62L536.17,499.4ZM530.72,491.96L532.07,491.4L534.13,491.62L535.71,490.22L536.58,487.77L537.68,486.81L538.75,487.17L542.68,487.32L542.9,489.01L542.65,490.28L543.4,490.93L544.93,490.21L544.66,489.37L546.88,486.73L547.59,486.59L548.44,485.43L549.84,485.7L550.38,486.73L551.24,486.56L551.05,487.67L552.38,488.64L552.62,490.38L554.33,494.76L552.8,496.06L551.56,497.88L549.64,498.07L548.6,499.27L544.85,499.34L542.83,500.68L540.95,502.62L540.16,503.06L539.15,501.91L538.51,500.36L536.71,499.04L535.25,499.28L533.93,498.76L531.18,498.99L530.55,497.59L531.29,496.43L531.19,495.95L530.63,495.75L531.24,494.6Z" class="land" id="VN-43" title="Bà Rịa–Vũng Tàu"/>
    <path d="M454.3,480.75L454.31,482.35L455.16,483.24L456.05,485.18L457.32,485.32L457.4,486.63L458.95,486.97L458.05,488.25L458.88,488.9L461.04,488.88L460.8,492.2L461.87,494.76L463.84,495.85L465.05,495.74L466.52,496.46L467.92,495.98L468.99,496.59L470.33,498.89L470.46,500.9L469.66,500.7L468.36,502.12L468.57,503.13L467.38,504.03L467.17,505.25L466.41,505.86L464.3,506.18L464.91,507.57L460.52,509.05L459.06,507.26L457.63,508.87L456.13,510.11L455.08,511.18L451.71,508.26L447.26,505.57L440.81,503.99L439.29,501.79L438,499.32L437.19,498.49L437.2,497.19L440.96,497.05L442.17,495.97L443.72,493.33L444.67,492.2L450.58,488.72L450.32,487.26L449.11,486.11L448.89,484.64L447.67,481.63L448.54,480.14L449.95,478.87L451.12,478.65L450.89,480.43L452.95,480.27Z" class="land" id="VN-44" title="An Giang"/>
    <path d="M467.3,478.99L467.96,480.27L470.82,481.58L472,483.97L471.38,484.14L479.1,491.31L481.32,492.15L484.52,496.34L485.84,496.43L485.83,498.18L482.39,501.81L481.75,503.57L480.56,503.38L480.8,505.93L483,506.66L483.84,507.32L483.15,507.85L484.63,509.42L484.63,510.8L483.09,510.94L482.85,512.4L481.1,512.64L479.96,512.36L478.87,510.94L476.88,510.29L475.01,513.25L472.56,511.01L471.52,508.85L469.49,506.9L467.17,505.25L467.38,504.03L468.57,503.13L468.36,502.12L469.66,500.7L470.46,500.9L470.33,498.89L468.99,496.59L467.92,495.98L466.52,496.46L465.05,495.74L463.84,495.85L461.87,494.76L460.8,492.2L461.04,488.88L458.88,488.9L458.05,488.25L458.95,486.97L457.4,486.63L457.32,485.32L456.05,485.18L455.16,483.24L454.31,482.35L454.3,480.75L456.45,481.55L457.54,481.38L460.63,482.93L462.67,480.42L463.52,479.94L464.3,478.18Z" class="land" id="VN-45" title="Đồng Tháp"/>
    <path d="M485.84,496.43L492.55,497L492.42,494.79L496.82,494.65L500.23,494.31L501.63,495.01L502.81,496.75L503.69,497.22L503.75,498.45L505.11,498.29L507.18,499.9L505.87,500.99L507.7,502.16L510.37,500.73L511.62,501.59L512.87,501.36L513.25,500.59L515.67,498.76L515.99,500.38L516.78,500.46L518.98,498.07L521.18,501.17L521.03,506.47L519.53,508.06L520.97,509.5L519,510.55L515.34,508.91L510.67,507.65L508.08,506.04L507,506.04L505.18,504.94L503.53,504.68L501.01,505.52L500.22,505.12L496.7,505.77L493.99,507.03L491.62,507.24L489.71,506.37L488.04,505.11L487.27,505.18L485.18,507.01L483.84,507.32L483,506.66L480.8,505.93L480.56,503.38L481.75,503.57L482.39,501.81L485.83,498.18Z" class="land" id="VN-46" title="Tiền Giang"/>
    <path d="M404.58,500L405.97,501.55L407.08,502.03L408.01,503.35L407.74,504.79L408.06,505.94L407.82,507.23L408.1,508.59L407.04,510.43L406.23,513.86L405.45,515.34L406.52,515.97L405.95,517.44L405.11,518.43L404.28,516.79L404.13,515.25L402.94,509.73L402.51,508.68L401.11,506.73L398.87,506.23L397.95,503.04L401.38,503.8L402.47,502.06L403.31,501.69L403.57,500.46ZM437.2,497.19L437.19,498.49L438,499.32L439.29,501.79L440.81,503.99L447.26,505.57L451.71,508.26L455.08,511.18L456.13,510.11L455.93,510.42L458.92,513.04L459.74,512.96L461.23,514.62L461.71,515.78L468.71,522.22L469.01,522.5L468.05,524.58L465.52,526.26L464.48,526.54L464.73,527.53L463.4,528.48L463.7,529.32L460.2,531.35L460.65,532.38L461.94,533.09L463.47,533.41L463.15,534.63L462.08,535.71L460.92,535.88L459.39,535.26L458.44,535.58L460.01,537.3L460.26,538.59L458.76,540.17L458.79,542.51L459.47,543.48L458.8,544.43L457.43,543.96L446.61,537.3L446.2,538.08L444.92,537.41L444.2,538.39L442.98,537.16L441.52,539.98L439.56,538.45L440.51,530.88L441.73,526.11L442.42,525.07L444.64,524.97L446.96,522.5L449.13,520.99L450.93,521.06L449.98,518.6L446.14,514.75L444.74,514.75L442.35,515.27L440.76,514.23L440.08,512.89L438.01,510.43L435.42,509.35L434.4,509.77L432.98,511L431.65,513.12L430.44,512.65L429.33,511.08L429.45,509.85L428.99,508.18L426.93,505.89L426.11,504.43L423.6,502.11L423.07,501.2L424.71,500.86L425.59,501.84L426.74,500.18L427.73,499.77L428.06,498.27L429.04,497.79L429.27,496.75L431.7,496.74L433.42,496.41L436.14,497.22Z" class="land" id="VN-47" title="Kiên Giang"/>
    <path d="M489.71,506.37L489.81,508.38L492.55,508.82L494.27,510.31L496.14,511.44L497.68,512.88L500.37,516.77L498.35,515.44L497.66,516.47L497.97,517.88L497.07,518.5L496.21,517.76L494.55,518.13L493.91,517.86L493.78,520.44L492.98,521.42L491.89,520.54L490.58,521.08L489.91,521.91L487.71,522.93L487.53,523.75L485.02,521.78L483.95,521.44L481.77,519.53L479.28,516.03L475.01,513.25L476.88,510.29L478.87,510.94L479.96,512.36L481.1,512.64L482.85,512.4L483.09,510.94L484.63,510.8L484.63,509.42L483.15,507.85L483.84,507.32L485.18,507.01L487.27,505.18L488.04,505.11Z" class="land" id="VN-49" title="Vĩnh Long"/>
    <path d="M489.71,506.37L491.62,507.24L493.99,507.03L496.7,505.77L500.22,505.12L501.01,505.52L503.53,504.68L505.18,504.94L507,506.04L508.08,506.04L510.67,507.65L515.34,508.91L519,510.55L521.33,512.5L521.32,514.27L519.49,516.61L517.54,517.09L517.08,518.19L515.32,519.92L513.88,519.82L512.56,519.15L512.17,519.73L513.38,520.64L515.85,521.78L517.12,523.63L515.85,525.78L514.49,526.98L513.77,527.05L508.55,521.96L507.56,521.64L505.77,520.84L503.08,518.82L501.8,518.27L500.37,516.77L497.68,512.88L496.14,511.44L494.27,510.31L492.55,508.82L489.81,508.38Z" class="land" id="VN-50" title="Bến Tre"/>
    <path d="M487.53,523.75L487.71,522.93L489.91,521.91L490.58,521.08L491.89,520.54L492.98,521.42L493.78,520.44L493.91,517.86L494.55,518.13L496.21,517.76L497.07,518.5L497.97,517.88L497.66,516.47L498.35,515.44L500.37,516.77L501.8,518.27L503.08,518.82L505.77,520.84L507.56,521.64L511.09,525.18L510.1,525.88L509.55,525.04L507.9,524.57L509.88,526.92L509.92,528.59L512.11,529.89L512.48,532.41L511.76,534.59L510.43,536.44L509.34,537.27L505.65,538.5L504.02,538.54L502.64,536.69L500.28,535.24L499.93,535.61L496.98,533.43L492.74,529.09L491.14,528.1L488.47,525.23Z" class="land" id="VN-51" title="Trà Vinh"/>
    <path d="M483.95,521.44L485.02,521.78L487.53,523.75L488.47,525.23L491.14,528.1L492.74,529.09L496.98,533.43L499.93,535.61L500.55,536.63L500.27,537.96L499.19,539.55L497.98,539.92L497,539.09L496.9,541.34L495.24,542.97L496.21,543.75L496.11,544.85L495.19,545.82L493.61,546.71L492.28,546.6L490.74,547.05L481.06,550.46L480.41,546.46L482.36,545.62L481.94,544.39L481.46,543.89L480.51,544.99L479.61,544.87L478.74,543.45L477.64,543.67L475.96,544.84L474.6,544.32L473.63,544.45L473.16,543.55L471.51,542.93L470.73,543.47L469.25,541.82L469.19,540.98L469.7,537.21L469.29,536.15L470.55,534.95L471.36,535.2L474.45,534.18L476.15,532.71L481.72,529.34L482.12,526.2L482.89,523.83L482.96,522.67Z" class="land" id="VN-52" title="Sóc Trăng"/>
    <path d="M468.67,-9.16L469.3,-10.15L472.41,-11.89L473.58,-11.83L474.23,-12.89L475.41,-12.64L477.44,-13.6L478.86,-11.24L476.97,-9.03L478.01,-8.05L480.08,-4.56L481.59,-4.19L482.82,-4.42L484.57,-3.35L485.48,-4.69L486.45,-4.51L488.6,-5.84L491.1,-6.46L492.31,-5.51L492.55,-4.21L493.33,-3.94L493.31,-2.38L492.25,-1.21L492.91,0.67L494.15,0.86L494.93,0.22L496.02,1.05L497.41,2.79L496.59,4.21L498.57,6.58L498.17,8.03L497.49,8.64L498.01,9.84L495.81,11.92L494.81,13.9L493.4,13.75L492.44,14.31L492.24,15.79L492.89,16.7L492.93,18.87L492.37,19.91L490.73,19.75L489.49,18.65L488.76,19.92L487.27,19.84L486.01,21.38L484.5,21.69L483.3,23.21L482.42,23.74L480.5,23.84L479.86,25.46L478.23,24.87L478.62,23.21L478.85,19.26L477.86,16.76L476.01,16.35L474.41,15.31L473.74,16.33L471.23,16.87L470.5,19.07L469.67,19.08L468.71,18.66L467.11,16.83L466.82,15.32L465.8,14.19L466.3,13.24L465.8,12.49L467.07,10.72L465.78,10.23L464.47,8.26L464.79,6.66L465.68,5.44L467.01,5.04L467.19,3.04L467.94,2.73L468.11,0.57L469.56,0.09L469.85,-2.03L471.46,-3.14L471.44,-4.54L470.6,-6.07L469.99,-6.18L468.55,-8.58Z" class="land" id="VN-53" title="Bắc Kạn"/>
    <path d="M483.75,45.46L483.26,44.97L484.57,43.36L485.76,43.51L486.62,40.86L487.35,41.8L489.39,42.42L489.31,41.06L490.25,40.65L490,37.6L490.63,33.91L492.41,32.99L493.56,33.36L495.04,32.99L495.97,33.85L495.32,34.24L495.27,37.67L498.67,38.73L500.28,38.56L500.1,40.19L501.22,40.21L502.14,40.89L501.79,41.81L502.48,42.49L504.01,42.65L505.72,40.82L507.64,40.84L508.41,40.34L508.92,38.93L510.04,38.21L509.47,37.17L511.53,34.3L513.97,33.69L514.82,33.99L516.26,33.65L517.62,34.31L517.5,35.22L518.91,36.32L520,35.26L521.12,34.99L521.94,35.72L523.5,35.71L524.17,37.27L523.58,38.42L525.4,38.61L525.49,40.23L526.33,41.11L529.47,40.72L530.2,41.49L529.43,42.34L529.52,44.07L531.39,45.51L530.49,46.78L528.9,47.22L529.43,48.29L527.37,52.04L526.55,51.39L524.74,51.83L524,51.21L522.8,51.23L522.78,52.23L521.4,52.87L518.41,52.44L517.41,51.99L513.75,51.95L512.59,51.08L510.96,51.08L510.33,49.79L509.23,49.72L505.98,49.46L505.5,50.42L503.88,50.93L503.57,51.84L501.19,51.58L501.74,52.9L500.76,54L499.63,53.54L498.88,51.97L495.38,51.51L494.62,50.39L493.32,50.83L492.02,50.51L488.72,48.27L487.27,49.77L485.65,48.93L485.03,47.1Z" class="land" id="VN-54" title="Bắc Giang"/>
    <path d="M458.8,544.43L459.47,543.48L458.79,542.51L458.76,540.17L460.26,538.59L460.01,537.3L458.44,535.58L459.39,535.26L460.92,535.88L462.08,535.71L463.93,535.88L466.14,535.69L466.91,536.32L468.82,535.69L469.29,536.15L469.7,537.21L469.19,540.98L469.25,541.82L470.73,543.47L471.51,542.93L473.16,543.55L473.63,544.45L474.6,544.32L475.96,544.84L477.64,543.67L478.74,543.45L479.61,544.87L480.51,544.99L481.46,543.89L481.94,544.39L482.36,545.62L480.41,546.46L481.06,550.46L476.84,552.47L468.76,555.86L466.54,557.23L464.22,559.81L463.9,559.55L463.62,558.5L460.71,557.62L459.76,557.64L458.92,556.9L457.92,557.11L456.71,556.45L457.61,553.98L457.04,552.35L456.19,551.71L457.25,550.14L458.76,548.96L457.24,547.51L456.85,546.65Z" class="land" id="VN-55" title="Bạc Liêu"/>
    <path d="M485.65,48.93L487.27,49.77L488.72,48.27L492.02,50.51L493.32,50.83L494.62,50.39L495.38,51.51L498.88,51.97L499.63,53.54L500.76,54L500.6,54.64L501.28,56.65L500.58,58.17L499.4,59.6L497.48,59.52L493.57,59.78L492.02,58.8L490.38,58.8L489.49,59.39L488.3,59.1L489.08,57.38L488.21,55.99L486.91,56.08L486.48,55.29L484.61,53.85L485.18,53.23L484.37,51.06L484.88,49.44Z" class="land" id="VN-56" title="Bắc Ninh"/>
    <path d="M518.62,459.43L519.91,458.31L519.8,457.24L521.33,456.6L521.96,458.25L520.55,459.3L520.44,460.22L521.09,461.23L522.74,461.11L524.01,461.42L524.07,463.99L525.28,462.86L526.58,462.22L527.52,462.43L528.09,463.38L527.48,464.2L526.99,466.72L526.16,468.99L527.27,469.13L528.11,470.2L528.11,471.66L528.59,472.53L526.4,475.35L524.78,476.22L523.36,475.39L522.83,474.33L521.66,474.68L522.05,475.96L520.64,476.8L521.54,478.21L520.15,479L523.37,481.29L522.06,482.29L521.22,482.4L520.36,481.49L519.45,482.41L518.26,481.39L517.09,482.04L516.94,480.42L515.47,479.85L515.35,477.87L514.02,477.48L514.16,476.68L512.2,474.77L511.31,475.14L510.15,473.97L510.28,472.01L509.47,471.11L507.36,471.09L506.96,471.42L504.48,469.3L504.53,468.18L503.77,466.83L502.94,466.67L502.99,465.12L502.27,464.7L502.68,463.52L501.9,462.71L503.76,458.33L505.18,457.71L506.02,456.39L508.74,456.14L510.86,457.6L512.16,457.97L510.89,459.34L510.88,460.96L511.43,461.52L513.89,460.94L514.04,461.92L516.45,462.21L516.66,461.04L517.73,460.6L518.3,459.49Z" class="land" id="VN-57" title="Bình Dương"/>
    <path d="M527.48,464.2L528.09,463.38L527.52,462.43L526.58,462.22L525.28,462.86L524.07,463.99L524.01,461.42L522.74,461.11L521.09,461.23L520.44,460.22L520.55,459.3L521.96,458.25L521.33,456.6L519.8,457.24L519.91,458.31L518.62,459.43L518.3,459.49L517.73,460.6L516.66,461.04L516.45,462.21L514.04,461.92L513.89,460.94L511.43,461.52L510.88,460.96L510.89,459.34L512.16,457.97L510.86,457.6L508.74,456.14L506.02,456.39L506.34,454.49L508.04,454.24L508.84,453.26L507.88,451.39L507.06,449.05L505.58,445.05L506.97,442.62L507.01,440.86L507.78,440.81L505.48,436.37L507.29,435.74L508.74,436.55L514.96,436.35L515.71,435.73L516.86,436.73L518.34,436.53L520.05,433.71L521.45,431.85L522.67,431.81L523.87,432.47L525.24,432.23L526.57,432.69L529.79,431.64L533.41,428.45L534.17,426.98L535.79,425.07L536.4,423.75L538.67,422.91L539.56,429.02L539.33,429.98L540.08,430.52L539.67,431.73L539.74,434.14L543.6,435.12L544.73,436.59L544.79,437.83L546.04,438.51L547.11,440.79L547.93,441.1L547.21,443.36L546.39,445.01L542.66,446.15L542,446.76L541.98,448.36L541.18,449.42L541.41,450.45L542.79,451.24L542.49,452.61L543.04,453.87L544.14,454.24L543.54,454.5L535.79,456.15L535.1,456.94L534.11,457.06L533.23,458.11L533.32,459.67L532.34,461.53L530.21,463.21Z" class="land" id="VN-58" title="Bình Phước"/>
    <path d="M439.56,538.45L441.52,539.98L442.98,537.16L444.2,538.39L444.92,537.41L446.2,538.08L446.61,537.3L457.43,543.96L458.8,544.43L456.85,546.65L457.24,547.51L458.76,548.96L457.25,550.14L456.19,551.71L457.04,552.35L457.61,553.98L456.71,556.45L457.92,557.11L458.92,556.9L459.76,557.64L460.71,557.62L463.62,558.5L463.9,559.55L462.96,561.23L462.71,562.54L461.27,565.86L460.11,567.75L457.56,570.47L455.31,570.99L454.01,571.66L452.39,573.53L451.87,575.01L451.02,575.91L449.09,576.32L446.81,577.36L444.84,577.89L439.68,578.9L438.26,578.23L435.93,577.71L434.66,577.09L435.01,575.37L436.3,575.73L438.16,575.1L437.74,574.46L437.65,572.71L439.08,571.7L441.21,571.17L441.76,569.18L438.61,570.19L437.29,568.34L438.11,564.22L438.24,558.33L438.46,555.5L438.41,553.21L438.95,550.22Z" class="land" id="VN-59" title="Cà Mau"/>
    <path d="M500.76,54L501.74,52.9L501.19,51.58L503.57,51.84L503.88,50.93L505.5,50.42L505.98,49.46L509.23,49.72L508.42,52.47L508.46,53.74L507.53,54.29L506.68,55.84L507.31,56.37L508.6,56.26L509.8,57.16L512.31,56.7L513.8,58.21L511.87,58.29L511.46,59.36L512.7,60.19L512.98,61.29L512.34,62L510.93,61.46L510.81,63.26L511.31,64.39L509.01,65.76L508.56,67.47L509.07,68.58L508.04,69.39L507.49,70.69L505.29,70.45L503.21,71.59L502.17,71.19L500.91,72.07L499.51,72.28L497.76,71.42L497.27,69.54L494.59,68.21L493.73,67.18L493.67,65.65L494.4,63.78L493.94,63.13L494.51,60.76L493.57,59.78L497.48,59.52L499.4,59.6L500.58,58.17L501.28,56.65L500.6,54.64Z" class="land" id="VN-61" title="Hải Dương"/>
    <path d="M488.37,71.46L489.47,72.03L489.55,73.83L490.65,75.47L491.45,75.69L493.3,75.1L493.77,76.87L495.43,78.06L495.91,80.63L494.4,81.31L494.12,80.22L492.43,80.53L491.37,81.32L490.08,81.24L488.83,84.2L486.78,83.1L486.18,84.03L485.08,84.34L485.52,85.52L484.16,85.3L482.3,83.09L482.07,80.92L479.68,79.51L478.58,77.27L479.72,77.13L480.51,74.39L481.31,73.83L483.17,74.02L484.88,72.65L485.95,73.53L487.3,73.09Z" class="land" id="VN-63" title="Hà Nam"/>
    <path d="M488.3,59.1L489.49,59.39L490.38,58.8L492.02,58.8L493.57,59.78L494.51,60.76L493.94,63.13L494.4,63.78L493.67,65.65L493.73,67.18L494.59,68.21L497.27,69.54L497.76,71.42L499.51,72.28L496.71,73.98L494.35,73.36L492.86,74.03L493.3,75.1L491.45,75.69L490.65,75.47L489.55,73.83L489.47,72.03L488.37,71.46L487.12,71.62L486.86,68.58L485.29,68.02L484.53,66.2L485.46,65.3L485.34,64.35L484.03,63.06L484.7,61.73L484.72,60.13L486.38,60.42L487.08,59.24Z" class="land" id="VN-66" title="Hưng Yên"/>
    <path d="M511.91,89.44L512.82,91.26L512.24,92.1L511.08,91.87L511.29,89.77ZM485.52,85.52L485.08,84.34L486.18,84.03L486.78,83.1L488.83,84.2L490.08,81.24L491.37,81.32L492.43,80.53L494.12,80.22L494.4,81.31L495.91,80.63L497.64,81.34L497.01,82.97L497.43,83.71L499.7,84.04L500.1,85.01L498.87,86.03L499.88,87.12L502.41,85.11L503.14,86.13L504.94,86.79L506.2,88.26L507.54,88.81L510.28,87.67L511.65,89.02L511.24,89.78L511.14,90.72L509.19,91.74L505.3,92.39L503.24,93.6L501.84,94.91L495.72,102L493.79,102.91L493.77,104.04L492.23,104.57L492.53,103.66L492.24,102.11L493.03,98.94L494.11,98.21L494.48,96.6L495.27,95.45L495.02,92.98L494.32,91.4L492.71,91.84L492.29,90.32L490.58,91.81L487.49,89.91L487.62,88.75L486.8,87.78L485.58,87.16L486.34,86.13Z" class="land" id="VN-67" title="Nam Định"/>
    <path d="M450.06,29.08L452.99,30.37L453.88,30.38L455.03,31.41L456.29,31.57L455.9,32.78L457.67,36.27L460.03,37.91L461.21,41.61L462.08,40.97L463.1,41.87L462.94,44.05L465.49,46.06L464.99,48.03L464.59,47.06L463.02,46.4L461.42,47.02L461.27,48.59L460.62,50.34L459.14,51.09L458.45,52.17L459.82,54.35L458.75,56.87L459.72,58.59L460.86,61.57L457.96,62.24L456.77,61.37L454.95,62.57L455.08,61.16L451.93,61.69L450.3,60.76L449.4,59.16L448.24,58.69L446.85,57.51L444.91,56.58L443.87,56.77L442.75,54.46L440.33,52.82L440.81,50.49L439.84,48.17L439.92,46.21L438.78,45.11L440.16,44.94L440.76,43.86L441.62,43.56L442.6,41.78L442.77,40.46L441.64,38.2L441.14,35.86L442.22,35.5L442,33.84L443.1,32.33L447.26,30.35L447.73,29.79L449.48,30.59L450.62,30.28Z" class="land" id="VN-68" title="Phú Thọ"/>
    <path d="M469.67,19.08L470.5,19.07L471.23,16.87L473.74,16.33L474.41,15.31L476.01,16.35L477.86,16.76L478.85,19.26L478.62,23.21L478.23,24.87L479.86,25.46L480.5,23.84L482.42,23.74L483.3,23.21L484.5,21.69L486.01,21.38L487.27,19.84L488.76,19.92L489.49,18.65L490.73,19.75L492.37,19.91L493.74,20.63L492.98,21.88L492.92,23.6L492.24,24.8L492.93,26.43L493.97,26.3L494.48,27.29L498.18,29.18L497.67,30.69L496.25,32.1L495.97,33.85L495.04,32.99L493.56,33.36L492.41,32.99L490.63,33.91L490,37.6L490.25,40.65L489.31,41.06L489.39,42.42L487.35,41.8L486.62,40.86L485.76,43.51L484.57,43.36L483.26,44.97L483.75,45.46L482.31,44.94L482.25,43.37L479.94,43L479.25,44.06L479.25,44.07L477.65,41.7L476.93,41.99L475.89,40.68L474.69,39.96L473.7,39.97L469.72,35.25L469.12,35.12L467.2,33.25L466.48,30.92L467.73,27.74L467.12,26.72L467.09,24.51L468.05,24.55L468.54,23.47L468.12,22.46L469.55,21.14Z" class="land" id="VN-69" title="Thái Nguyên"/>
    <path d="M469.12,35.12L469.72,35.25L473.7,39.97L474.69,39.96L475.89,40.68L476.93,41.99L477.65,41.7L479.25,44.07L479.25,44.08L477.95,46.76L477.23,47.11L476.68,48.59L477.09,49.33L479.4,50.89L478.71,51.66L478.78,53.1L477.04,53.98L475.8,53.2L472.86,52.47L472.48,51.77L469.77,52.5L467.02,52.37L466.08,51.72L465.72,49.9L464.99,48.03L465.49,46.06L462.94,44.05L463.1,41.87L462.08,40.97L461.21,41.61L460.03,37.91L461.97,37.18L462.77,37.72L464.44,37.95L466.82,37.46L468.24,36.74Z" class="land" id="VN-70" title="Vĩnh Phúc"/>
    <path d="M334.72,-6.04L334.76,-5.46L336.44,-2.55L337.7,-1.91L337.41,0.16L339.08,1.82L340.02,2.24L342.76,6.43L343.95,7.17L345.44,6.42L347.17,7.51L347.17,9L349.61,10.31L350.45,8.61L350.2,7.01L351.65,7.36L352.8,8.62L352.14,10.21L352.38,11.87L353.84,13.1L353.7,13.66L355.5,14.56L358.36,14.18L360.27,13.31L360.12,14.41L362.45,16.2L363.04,15.12L364.87,15.27L366.71,14.37L367.29,13.08L369.02,14.51L370.11,14.03L371.85,14.44L373.14,15.28L374.8,15.72L374.39,14.18L374.96,12.76L376.84,10.87L379.2,10.75L379.92,11.96L380.6,14.32L381.92,15.07L382.5,16.23L381.87,16.95L382.72,18.13L383.7,18.58L382.99,21.1L383.51,22.56L384.78,23.14L385.8,25.78L385.58,26.61L386.86,28.17L387.91,30.64L387.04,30.54L385.57,32.08L386.31,32.94L385.09,34.62L384.58,36.85L382.16,37.46L381.68,38.74L382,39.84L381.41,41.1L379.38,40.88L376.82,41.79L378.04,43.56L379.17,43.89L378.29,45.18L380.88,46.04L381.35,47.15L381.07,52.07L379.49,52.95L379.77,54.69L380.79,56.23L378.51,56.47L376.96,55.34L375.23,55.06L374.51,56.51L375.18,58.25L374.58,59.12L375.51,60.54L374.5,61.84L375.03,62.96L373.25,63.53L372.13,63.46L369.94,62.6L367.72,63.39L367.32,61.84L365.46,58.94L364.43,56.7L361.86,56.29L361.38,54.39L360.49,53.71L360.36,52.48L359.04,52.15L359.34,50.56L358.52,48.84L357.37,48.36L355.75,48.81L355.13,48.08L356.88,46.62L358.7,46.4L358.41,45.22L358.63,43.03L359.62,42.08L359.37,40.83L357.74,41.41L358.42,39.5L359.37,38.08L361.62,35.43L362.75,34.61L362.14,31.9L362.51,29.23L361.03,28.63L358.89,29.08L357.86,29.73L357,28.95L357.1,25.78L356.84,24.02L355.52,23.89L355.09,24.72L355.72,28.36L354.1,29.57L352.12,31.56L350.24,31.37L349.49,31.68L348.23,28.51L348.92,25.99L347.52,22.79L346.92,20.76L344.95,19.94L342.41,18.44L341.66,17.54L342.57,15.76L339.74,14.24L339.67,13.07L337.24,10.98L335.31,10.37L334.68,8.81L333.17,8.68L332.65,7.44L331.32,7.32L330.89,5.88L328.7,4.51L328.37,1.66L327.17,0.64L327.81,-0.67L329.01,-0.84L332.1,-0.01L332.14,-2.19L332.52,-3.53Z" class="land" id="VN-71" title="Điện Biên"/>
    <path d="M553.47,401.96L556.54,401.71L560.67,402.61L563.62,402.66L565.46,401.3L566.34,403.89L568.09,404.24L567.48,405.5L568.53,408.25L569.11,410.94L567.45,411.7L567.2,412.75L568.17,413.33L569.48,413.26L570.78,414.07L571.89,415.36L571.18,416.62L569.54,416.85L568.57,417.41L568.16,418.55L569,419.63L569.07,420.98L569.84,421.95L573.49,423.21L575.37,425.16L575.52,426.05L576.57,427.56L576.72,428.51L576.1,429.55L573.64,429.45L571.4,430.17L570.97,433.05L572.31,433.09L572.99,435.66L573.92,437.09L574.68,437.43L575.35,438.95L576.34,439.22L576.06,440.38L574.71,442.16L574.27,442.05L570.77,444.02L570.1,442.83L568.71,443.74L567.19,442.75L567.41,440.66L564.79,440.39L564.45,440.98L562.31,441.56L560.77,440.49L560.5,438.81L558.87,438.61L557.58,440.46L556.36,440.89L555.91,442L554.22,442.73L553.15,443.97L551.03,443.7L550.15,443.99L549.44,445.25L548.16,445.05L547.48,445.76L546.39,445.01L547.21,443.36L547.93,441.1L547.11,440.79L546.04,438.51L544.79,437.83L544.73,436.59L543.6,435.12L539.74,434.14L539.67,431.73L540.08,430.52L539.33,429.98L539.56,429.02L538.67,422.91L539.69,422.91L541.1,422.04L542.97,421.36L544.45,421.28L545.72,422.5L546.23,423.95L547.33,424.92L548.19,425.04L548.64,423.09L549.62,422.29L551.44,421.56L552.85,420.58L552.88,418.78L554.28,414.58L553.56,413.46L554.73,411.93L554.56,410.3L553.88,408.42L554.4,406.9L553.42,405.49Z" class="land" id="VN-72" title="Đắk Nông"/>
    <path d="M468.71,522.22L470,519.4L470.47,519.1L472.35,521.13L473.98,520.25L474.49,521.38L476.29,520.56L476.7,519.86L478.22,520.61L480.69,520.31L481.77,519.53L483.95,521.44L482.96,522.67L482.89,523.83L482.12,526.2L481.72,529.34L476.15,532.71L474.45,534.18L471.36,535.2L470.55,534.95L469.29,536.15L468.82,535.69L466.91,536.32L466.14,535.69L463.93,535.88L462.08,535.71L463.15,534.63L463.47,533.41L461.94,533.09L460.65,532.38L460.2,531.35L463.7,529.32L463.4,528.48L464.73,527.53L464.48,526.54L465.52,526.26L468.05,524.58L469.01,522.5Z" class="land" id="VN-73" title="Hậu Giang"/>
    <path d="M467.17,505.25L469.49,506.9L471.52,508.85L472.56,511.01L475.01,513.25L479.28,516.03L481.77,519.53L480.69,520.31L478.22,520.61L476.7,519.86L476.29,520.56L474.49,521.38L473.98,520.25L472.35,521.13L470.47,519.1L470,519.4L468.71,522.22L461.71,515.78L461.23,514.62L459.74,512.96L458.92,513.04L455.93,510.42L456.13,510.11L457.63,508.87L459.06,507.26L460.52,509.05L464.91,507.57L464.3,506.18L466.41,505.86Z" class="land" id="VN-CT" title="Cần Thơ"/>
    <path d="M564.27,265.63L564.85,264.04L565.83,263.3L565.97,261.67L566.63,261.35L566.65,259.85L568.14,259.07L570.01,260.17L571.37,259.13L572.47,259.98L575.72,260.54L576.86,260.5L578.41,259.48L579.99,259.28L578.38,260.13L577.69,262.03L577.02,262.93L578.59,264.53L580.18,265.03L581.74,264.3L581.93,263.46L580.76,262.96L581.68,261.89L584.66,262.93L582.25,264.49L582.34,266.25L583.94,269.45L583.14,269.75L582.17,269.14L580.65,270.47L579.33,270.6L578.28,270.04L577.62,270.98L576.43,270.25L575.23,271.19L573.56,270.8L571.27,271.47L569.73,270.21L571.04,268.57L571.17,267.58L569.31,265.67L567.76,266.66L566.11,265.49Z" class="land" id="VN-DN" title="Đà Nẵng"/>
    <path d="M479.25,44.06L479.94,43L482.25,43.37L482.31,44.94L483.75,45.46L485.03,47.1L485.65,48.93L484.88,49.44L484.37,51.06L485.18,53.23L484.61,53.85L486.48,55.29L486.91,56.08L488.21,55.99L489.08,57.38L488.3,59.1L487.08,59.24L486.38,60.42L484.72,60.13L484.7,61.73L484.03,63.06L480.55,63.18L479.53,62.64L479.73,59.67L478.47,59.75L477.19,59.27L476.85,57.09L477.04,53.98L478.78,53.1L478.71,51.66L479.4,50.89L477.09,49.33L476.68,48.59L477.23,47.11L477.95,46.76L479.25,44.08Z" class="land" id="VN-HN" title="Hà Nội"/>
    <path d="M524.68,66.13L526.1,67.37L523.87,67.87L523.48,66.81ZM513.8,58.21L515.51,58.29L517.78,59.11L519.43,59.3L520.17,60.08L520.04,63.25L518.03,64.33L522.13,66.64L520.46,67.52L519.74,68.53L520.62,69.18L521.27,70.57L517.71,72.93L517.38,73.87L515.24,75L513.4,74.14L510.82,75.47L508.86,75.12L508.39,75.84L507.06,74.98L506.56,73.22L504.99,72.12L505.29,70.45L507.49,70.69L508.04,69.39L509.07,68.58L508.56,67.47L509.01,65.76L511.31,64.39L510.81,63.26L510.93,61.46L512.34,62L512.98,61.29L512.7,60.19L511.46,59.36L511.87,58.29ZM527.94,64.25L528.54,65.22L531.52,64.87L532.05,66.04L534.52,67.32L534.34,68.42L533.12,68.41L533.09,69.7L532.32,71.23L529.58,70.1L528.04,67.77L526.62,67.51L526.11,66.35Z" class="land" id="VN-HP" title="Hải Phòng"/>
    <path d="M521.18,501.17L518.98,498.07L519.55,496.88L519.28,495.37L518.31,493.53L518.85,492.82L518.44,491.85L517.55,491.52L515.09,492.67L513.58,491.31L512.06,491.42L511.28,490.21L510.57,490.1L510,488.61L508.62,488.34L507.64,487.23L509.32,485.88L510.55,481.18L507.22,479.48L505.49,478.16L503.85,478.32L503.17,477.4L505.56,476.7L506.02,475.05L506.09,473.22L506.96,471.42L507.36,471.09L509.47,471.11L510.28,472.01L510.15,473.97L511.31,475.14L512.2,474.77L514.16,476.68L514.02,477.48L515.35,477.87L515.47,479.85L516.94,480.42L517.09,482.04L518.26,481.39L519.45,482.41L520.36,481.49L521.22,482.4L522.06,482.29L523.37,481.29L523.97,483.55L525.11,485.14L524.39,485.87L524.43,486.89L522.76,486.37L520.56,487.64L519.73,488.68L519.8,489.69L522.01,491.24L522.78,492.5L525.17,491.73L526.81,493.31L528.44,493.93L529.37,494.5L530.38,493.33L531.13,494.34L530.4,495.6L531.12,496.2L530.21,497.38L529.11,497.77L528.66,499.52L527.23,499.07L527.41,500.34L528.82,501.86L526.46,502.86L525.06,502.6L524.3,500.92L523.41,502.25L521.6,500.79Z" class="land" id="VN-SG" title="Hồ Chí Minh"/>
  </g>
</svg>