<svg id="visual" viewBox="0 0 960 540" width="960" height="540" xmlns="http://www.w3.org/2000/svg" xmlns:xlink="http://www.w3.org/1999/xlink" version="1.1"><rect x="0" y="0" width="960" height="540" fill="#002233"></rect><path d="M0 441L22.8 434.7C45.7 428.3 91.3 415.7 137 418.8C182.7 422 228.3 441 274 446C319.7 451 365.3 442 411.2 422.3C457 402.7 503 372.3 548.8 358.8C594.7 345.3 640.3 348.7 686 356.2C731.7 363.7 777.3 375.3 823 383.3C868.7 391.3 914.3 395.7 937.2 397.8L960 400L960 541L937.2 541C914.3 541 868.7 541 823 541C777.3 541 731.7 541 686 541C640.3 541 594.7 541 548.8 541C503 541 457 541 411.2 541C365.3 541 319.7 541 274 541C228.3 541 182.7 541 137 541C91.3 541 45.7 541 22.8 541L0 541Z" fill="#0066FF" stroke-linecap="round" stroke-linejoin="miter"></path></svg>